<?xml version="1.0" encoding="UTF-8"?>
<!DOCTYPE svg PUBLIC "-//W3C//DTD SVG 1.1//EN" "http://www.w3.org/Graphics/SVG/1.1/DTD/svg11.dtd">
<svg version="1.1" xmlns="http://www.w3.org/2000/svg" xmlns:xlink="http://www.w3.org/1999/xlink" x="0" y="0" width="661.294" height="135.725" viewBox="0, 0, 661.294, 135.725">
  <g id="Layer_2" transform="translate(-3, -8.245)">
    <g id="path8669">
      <path d="M503.538,142.688 L503.538,73.14 L561.349,133.39 L561.349,73.968 L565.446,73.968 L565.446,143.47 L507.681,83.312 L507.681,142.688 L503.538,142.688 z M440.94,73.968 L445.773,73.968 L467.59,108.581 L489.453,73.968 L494.24,73.968 L469.661,113 L469.661,142.688 L465.565,142.688 L465.565,113 L440.94,73.968 z M433.622,86.12 L429.709,87.454 Q428.098,82.529 424.37,79.998 Q420.688,77.466 416.315,77.466 Q411.022,77.466 407.662,80.872 Q404.348,84.278 404.348,89.203 Q404.348,91.735 405.499,93.806 Q406.649,95.878 408.582,97.35 Q410.516,98.823 413.001,100.112 Q415.533,101.355 418.294,102.506 Q421.102,103.656 423.864,104.945 Q426.671,106.188 429.157,107.845 Q431.688,109.502 433.622,111.527 Q435.555,113.552 436.706,116.498 Q437.856,119.444 437.856,123.034 Q437.856,129.018 434.772,133.758 Q431.688,138.499 426.763,140.985 Q421.839,143.47 416.131,143.47 Q412.403,143.47 408.997,142.274 Q405.591,141.077 402.645,138.729 Q399.699,136.336 397.628,132.378 Q395.557,128.419 394.912,123.31 L399.009,122.804 Q400.159,131.089 404.9,135.185 Q409.687,139.236 416.131,139.236 Q420.688,139.236 424.646,137.349 Q428.605,135.415 431.136,131.641 Q433.714,127.821 433.714,122.896 Q433.714,119.812 432.563,117.326 Q431.412,114.841 429.479,113.138 Q427.546,111.435 425.014,110.008 Q422.529,108.581 419.721,107.431 Q416.96,106.234 414.152,105.037 Q411.39,103.84 408.859,102.367 Q406.373,100.895 404.44,99.146 Q402.507,97.396 401.356,94.865 Q400.205,92.287 400.205,89.111 Q400.205,82.483 404.716,77.835 Q409.227,73.14 416.315,73.14 Q421.839,73.14 426.671,76.592 Q431.55,79.998 433.622,86.12 z M335.168,76.132 Q341.612,73.37 348.7,73.37 Q355.788,73.37 362.232,76.132 Q368.722,78.893 373.371,83.588 Q378.066,88.283 380.828,94.773 Q383.589,101.263 383.589,108.397 Q383.589,115.531 380.828,122.021 Q378.066,128.465 373.371,133.16 Q368.722,137.855 362.232,140.617 Q355.788,143.378 348.7,143.378 Q341.612,143.378 335.168,140.617 Q328.724,137.855 324.075,133.16 Q319.426,128.465 316.665,122.021 Q313.903,115.531 313.903,108.397 Q313.903,101.263 316.665,94.773 Q319.426,88.283 324.075,83.588 Q328.724,78.893 335.168,76.132 z M318,108.397 Q318,114.657 320.393,120.364 Q322.832,126.072 326.929,130.214 Q331.025,134.357 336.733,136.842 Q342.44,139.282 348.7,139.282 Q355.006,139.282 360.713,136.842 Q366.421,134.357 370.517,130.214 Q374.614,126.072 377.053,120.364 Q379.493,114.657 379.493,108.397 Q379.493,99.974 375.396,92.886 Q371.3,85.751 364.166,81.609 Q357.077,77.466 348.7,77.466 Q340.323,77.466 333.235,81.609 Q326.193,85.751 322.096,92.886 Q318,99.974 318,108.397 z M305.48,73.968 L305.48,78.111 L287.667,78.111 L287.667,142.688 L283.525,142.688 L283.525,78.111 L265.666,78.111 L265.666,73.968 L305.48,73.968 z M208.867,76.132 Q215.311,73.37 222.4,73.37 Q229.488,73.37 235.932,76.132 Q242.422,78.893 247.071,83.588 Q251.765,88.283 254.527,94.773 Q257.289,101.263 257.289,108.397 Q257.289,115.531 254.527,122.021 Q251.765,128.465 247.071,133.16 Q242.422,137.855 235.932,140.617 Q229.488,143.378 222.4,143.378 Q215.311,143.378 208.867,140.617 Q202.424,137.855 197.775,133.16 Q193.126,128.465 190.364,122.021 Q187.603,115.531 187.603,108.397 Q187.603,101.263 190.364,94.773 Q193.126,88.283 197.775,83.588 Q202.424,78.893 208.867,76.132 z M191.699,108.397 Q191.699,114.657 194.092,120.364 Q196.532,126.072 200.628,130.214 Q204.725,134.357 210.432,136.842 Q216.14,139.282 222.4,139.282 Q228.705,139.282 234.413,136.842 Q240.12,134.357 244.217,130.214 Q248.313,126.072 250.753,120.364 Q253.192,114.657 253.192,108.397 Q253.192,99.974 249.096,92.886 Q244.999,85.751 237.865,81.609 Q230.777,77.466 222.4,77.466 Q214.023,77.466 206.934,81.609 Q199.892,85.751 195.796,92.886 Q191.699,99.974 191.699,108.397 z M170.25,73.968 L174.393,73.968 L174.393,142.688 L170.25,142.688 L170.25,104.853 L129.699,104.853 L129.699,142.688 L125.557,142.688 L125.557,73.968 L129.699,73.968 L129.699,100.71 L170.25,100.71 L170.25,73.968 z" fill="#44BD78"/>
      <path d="M503.538,142.688 L503.538,73.14 L561.349,133.39 L561.349,73.968 L565.446,73.968 L565.446,143.47 L507.681,83.312 L507.681,142.688 L503.538,142.688 z M440.94,73.968 L445.773,73.968 L467.59,108.581 L489.453,73.968 L494.24,73.968 L469.661,113 L469.661,142.688 L465.565,142.688 L465.565,113 L440.94,73.968 z M433.622,86.12 L429.709,87.454 Q428.098,82.529 424.37,79.998 Q420.688,77.466 416.315,77.466 Q411.022,77.466 407.662,80.872 Q404.348,84.278 404.348,89.203 Q404.348,91.735 405.499,93.806 Q406.649,95.878 408.582,97.35 Q410.516,98.823 413.001,100.112 Q415.533,101.355 418.294,102.506 Q421.102,103.656 423.864,104.945 Q426.671,106.188 429.157,107.845 Q431.688,109.502 433.622,111.527 Q435.555,113.552 436.706,116.498 Q437.856,119.444 437.856,123.034 Q437.856,129.018 434.772,133.758 Q431.688,138.499 426.763,140.985 Q421.839,143.47 416.131,143.47 Q412.403,143.47 408.997,142.274 Q405.591,141.077 402.645,138.729 Q399.699,136.336 397.628,132.378 Q395.557,128.419 394.912,123.31 L399.009,122.804 Q400.159,131.089 404.9,135.185 Q409.687,139.236 416.131,139.236 Q420.688,139.236 424.646,137.349 Q428.605,135.415 431.136,131.641 Q433.714,127.821 433.714,122.896 Q433.714,119.812 432.563,117.326 Q431.412,114.841 429.479,113.138 Q427.546,111.435 425.014,110.008 Q422.529,108.581 419.721,107.431 Q416.96,106.234 414.152,105.037 Q411.39,103.84 408.859,102.367 Q406.373,100.895 404.44,99.146 Q402.507,97.396 401.356,94.865 Q400.205,92.287 400.205,89.111 Q400.205,82.483 404.716,77.835 Q409.227,73.14 416.315,73.14 Q421.839,73.14 426.671,76.592 Q431.55,79.998 433.622,86.12 z M335.168,76.132 Q341.612,73.37 348.7,73.37 Q355.788,73.37 362.232,76.132 Q368.722,78.893 373.371,83.588 Q378.066,88.283 380.828,94.773 Q383.589,101.263 383.589,108.397 Q383.589,115.531 380.828,122.021 Q378.066,128.465 373.371,133.16 Q368.722,137.855 362.232,140.617 Q355.788,143.378 348.7,143.378 Q341.612,143.378 335.168,140.617 Q328.724,137.855 324.075,133.16 Q319.426,128.465 316.665,122.021 Q313.903,115.531 313.903,108.397 Q313.903,101.263 316.665,94.773 Q319.426,88.283 324.075,83.588 Q328.724,78.893 335.168,76.132 z M318,108.397 Q318,114.657 320.393,120.364 Q322.832,126.072 326.929,130.214 Q331.025,134.357 336.733,136.842 Q342.44,139.282 348.7,139.282 Q355.006,139.282 360.713,136.842 Q366.421,134.357 370.517,130.214 Q374.614,126.072 377.053,120.364 Q379.493,114.657 379.493,108.397 Q379.493,99.974 375.396,92.886 Q371.3,85.751 364.166,81.609 Q357.077,77.466 348.7,77.466 Q340.323,77.466 333.235,81.609 Q326.193,85.751 322.096,92.886 Q318,99.974 318,108.397 z M305.48,73.968 L305.48,78.111 L287.667,78.111 L287.667,142.688 L283.525,142.688 L283.525,78.111 L265.666,78.111 L265.666,73.968 L305.48,73.968 z M208.867,76.132 Q215.311,73.37 222.4,73.37 Q229.488,73.37 235.932,76.132 Q242.422,78.893 247.071,83.588 Q251.765,88.283 254.527,94.773 Q257.289,101.263 257.289,108.397 Q257.289,115.531 254.527,122.021 Q251.765,128.465 247.071,133.16 Q242.422,137.855 235.932,140.617 Q229.488,143.378 222.4,143.378 Q215.311,143.378 208.867,140.617 Q202.424,137.855 197.775,133.16 Q193.126,128.465 190.364,122.021 Q187.603,115.531 187.603,108.397 Q187.603,101.263 190.364,94.773 Q193.126,88.283 197.775,83.588 Q202.424,78.893 208.867,76.132 z M191.699,108.397 Q191.699,114.657 194.092,120.364 Q196.532,126.072 200.628,130.214 Q204.725,134.357 210.432,136.842 Q216.14,139.282 222.4,139.282 Q228.705,139.282 234.413,136.842 Q240.12,134.357 244.217,130.214 Q248.313,126.072 250.753,120.364 Q253.192,114.657 253.192,108.397 Q253.192,99.974 249.096,92.886 Q244.999,85.751 237.865,81.609 Q230.777,77.466 222.4,77.466 Q214.023,77.466 206.934,81.609 Q199.892,85.751 195.796,92.886 Q191.699,99.974 191.699,108.397 z M170.25,73.968 L174.393,73.968 L174.393,142.688 L170.25,142.688 L170.25,104.853 L129.699,104.853 L129.699,142.688 L125.557,142.688 L125.557,73.968 L129.699,73.968 L129.699,100.71 L170.25,100.71 L170.25,73.968 z" fill-opacity="0" stroke="#000000" stroke-width="0.161"/>
    </g>
    <path d="M60.584,45.253 C54.935,45.263 49.522,47.53 45.55,51.548 C41.579,55.567 39.377,61.006 39.434,66.655 C39.43,67.172 39.704,67.65 40.152,67.906 C40.601,68.162 41.152,68.157 41.595,67.892 C42.038,67.626 42.303,67.143 42.288,66.627 C42.239,61.737 44.144,57.033 47.581,53.556 C51.017,50.078 55.699,48.116 60.589,48.108 C61.105,48.117 61.587,47.846 61.847,47.4 C62.108,46.954 62.107,46.401 61.845,45.956 C61.582,45.511 61.1,45.242 60.583,45.253 z M67.873,8.245 C67.816,8.245 67.76,8.247 67.703,8.25 C32.971,9.56 4.91,37.143 3.006,71.847 C2.945,72.727 3.362,73.572 4.098,74.058 C4.835,74.544 5.776,74.596 6.561,74.193 C7.346,73.791 7.854,72.997 7.889,72.115 C9.657,39.89 35.636,14.352 67.887,13.136 C69.216,13.103 70.275,12.014 70.271,10.685 C70.267,9.356 69.202,8.273 67.873,8.247 z M87.945,58.278 C79.344,58.222 71.109,60.426 63.628,66.771 C57.996,71.548 54.273,82.532 54.279,89.148 L54.279,142.179 L59.39,142.179 L59.39,107.285 L71.067,107.285 C89.167,107.285 104.433,97.139 110.326,80.582 C112.534,74.378 111.298,62.409 111.298,62.409 C103.407,60.135 95.533,58.327 87.945,58.278 z M86.724,62.838 C93.563,62.82 100.589,64.512 107.123,65.965 C107.123,65.965 107.234,75.758 105.196,80.582 C99.391,94.32 86.28,102.043 71.067,102.043 L59.481,102.043 L59.476,101.557 C59.931,100.07 60.522,98.233 61.275,96.201 C62.979,91.606 65.473,86.339 67.91,83.967 C69.795,82.132 72.46,80.334 75.521,78.675 C76.109,78.363 76.404,77.686 76.231,77.043 C76.057,76.4 75.462,75.962 74.797,75.988 C74.574,75.997 74.356,76.058 74.161,76.166 C70.954,77.904 68.089,79.805 65.914,81.922 C63.197,84.566 61.073,88.922 59.414,93.093 L59.388,89.52 C59.334,82.569 62.425,74.642 67.451,69.964 C73.233,64.581 79.884,62.855 86.722,62.838 z" fill="#44BD78" id="path4795-9-1-9-4-0-1-7-3-9-0-2"/>
    <path d="M634.014,113.836 L640.539,113.836 L649.405,124.319 Q657.881,114.059 657.881,100.62 Q657.881,90.415 652.918,81.827 Q647.955,73.184 639.312,68.165 Q630.724,63.147 620.575,63.147 Q610.426,63.147 601.839,68.165 Q593.307,73.184 588.344,81.827 Q583.381,90.415 583.381,100.62 Q583.381,108.204 586.281,115.118 Q589.236,122.033 594.199,127.052 Q599.162,132.07 606.077,135.082 Q612.992,138.037 620.575,138.037 Q635.018,138.037 645.948,128.111 L634.014,113.836 z M664.294,142.164 L657.491,142.164 L649.015,132.07 Q643.271,137.256 635.966,140.156 Q628.661,143 620.575,143 Q611.988,143 604.181,139.654 Q596.374,136.308 590.742,130.62 Q585.11,124.933 581.764,117.126 Q578.418,109.263 578.418,100.62 Q578.418,91.976 581.764,84.114 Q585.11,76.251 590.742,70.563 Q596.374,64.875 604.181,61.529 Q611.988,58.184 620.575,58.184 Q629.163,58.184 636.97,61.529 Q644.833,64.875 650.465,70.563 Q656.153,76.251 659.498,84.114 Q662.844,91.976 662.844,100.62 Q662.844,116.457 652.528,128.334 L664.294,142.164 z" fill="#44BD78" id="path3347"/>
  </g>
</svg>
