<?xml version="1.0" encoding="UTF-8"?>
<!DOCTYPE svg PUBLIC "-//W3C//DTD SVG 1.1//EN" "http://www.w3.org/Graphics/SVG/1.1/DTD/svg11.dtd">
<svg version="1.1" xmlns="http://www.w3.org/2000/svg" xmlns:xlink="http://www.w3.org/1999/xlink" x="0" y="0" width="192" height="192" viewBox="0, 0, 192, 192">
  <defs>
    <linearGradient id="Gradient_1" gradientUnits="userSpaceOnUse" x1="4.998" y1="96.037" x2="186.998" y2="96.037">
      <stop offset="0" stop-color="#C3DF5E"/>
      <stop offset="0.349" stop-color="#8ACC5E"/>
      <stop offset="1" stop-color="#3498AB"/>
    </linearGradient>
  </defs>
  <g id="Layer_1">
    <path d="M187,96 C187,146.258 146.258,187 96,187 C45.742,187 5,146.258 5,96 C5,45.742 45.742,5 96,5 C146.258,5 187,45.742 187,96 z" fill="url(#Gradient_1)"/>
    <g opacity="0.14">
      <g>
        <path d="M43.878,36.289 C43.956,36.211 44.033,36.134 44.111,36.056 C43.181,35.824 42.329,35.669 41.555,35.437 C40.161,36.986 38.844,38.689 37.605,40.316 C39.541,40.548 42.871,37.295 43.878,36.289 M45.737,34.275 C47.596,32.106 50.771,27.924 49.532,27.227 C46.899,29.628 44.42,32.106 42.02,34.817 C42.794,35.049 43.723,35.282 44.653,35.437 C44.885,35.282 45.272,34.894 45.737,34.275 M37.373,40.238 C41.013,35.514 45.04,31.1 49.454,27.227 L49.222,27.227 C44.653,27.924 35.127,38.147 37.218,40.161 C37.218,40.161 37.295,40.238 37.373,40.238" fill="#FFFFFF"/>
        <path d="M72.843,43.181 C73.231,41.477 73.618,39.774 74.083,38.147 L70.365,41.865 C70.985,42.794 71.759,43.181 72.843,43.181 M70.133,41.477 L73.54,38.07 C72.379,38.07 71.217,38.07 70.055,38.07 C69.746,39.464 69.746,40.471 70.133,41.477 M78.187,38.225 C78.187,38.147 78.265,38.07 78.265,37.992 C77.026,37.992 75.786,38.07 74.547,38.07 C74.16,39.696 73.773,41.4 73.386,43.181 C75.941,42.717 77.645,40.393 78.187,38.225 M70.288,37.528 C71.449,37.528 72.611,37.528 73.773,37.528 L72.534,34.197 L72.379,34.352 C71.372,35.282 70.752,36.289 70.288,37.528 M74.702,37.45 C75.941,37.45 77.103,37.373 78.342,37.373 C78.652,34.817 77.723,32.958 76.019,32.649 C75.554,34.275 75.167,35.824 74.702,37.45 M74.315,37.373 C74.702,35.746 75.167,34.197 75.631,32.726 L75.477,32.726 C74.625,32.803 73.85,33.113 72.998,33.81 C73.386,34.894 73.928,36.289 74.315,37.373" fill="#FFFFFF"/>
        <path d="M117.53,37.915 L118.382,34.352 C117.066,34.585 115.671,34.74 114.277,34.972 C115.207,36.211 116.214,37.14 117.53,37.915 M122.022,38.922 L119.466,34.12 C119.311,34.12 119.157,34.197 119.002,34.197 L118.15,38.147 C119.544,38.922 120.706,39.154 122.022,38.922 M124.346,33.578 C124.346,33.5 124.268,33.423 124.268,33.346 C122.874,33.578 121.403,33.888 119.931,34.12 L122.564,38.922 C125.043,38.07 125.043,35.514 124.346,33.578 M119.079,33.578 C119.079,33.578 119.079,33.578 119.079,33.578 L119.079,33.578 C119.079,33.655 119.079,33.655 119.079,33.578 M123.261,31.564 C122.254,30.093 120.938,28.854 119.311,27.769 C119.311,29.318 119.311,31.409 119.157,32.881 L119.544,33.5 C121.093,33.268 122.564,32.958 123.958,32.726 C123.803,32.571 123.649,32.106 123.261,31.564 M118.614,32.726 L118.227,32.106 C116.446,30.945 114.123,29.396 112.341,28.234 L112.264,28.466 C111.954,30.79 112.961,32.958 113.89,34.352 C115.439,34.12 116.988,33.888 118.46,33.655 L118.614,32.726 M118.692,32.106 C118.769,30.712 118.847,28.854 118.847,27.46 C117.298,26.53 115.981,26.143 114.82,26.22 C116.059,28.002 117.375,29.938 118.537,31.874 C118.537,31.874 118.614,31.951 118.614,31.951 L118.692,32.106 M117.763,31.332 C116.678,29.551 115.517,27.847 114.432,26.22 L114.277,26.22 C113.348,26.453 112.883,26.917 112.496,27.847 C114.045,28.931 116.136,30.325 117.763,31.332" fill="#FFFFFF"/>
        <path d="M148.664,29.473 L146.418,26.53 C146.108,26.763 145.721,26.917 145.334,27.15 C146.573,28.079 147.58,28.776 148.664,29.473 M151.607,30.403 C149.98,28.931 148.354,27.614 146.728,26.298 C146.728,26.298 146.65,26.375 146.65,26.375 L149.206,29.783 C150.445,30.403 151.22,30.635 151.607,30.403 M147.967,25.678 C147.889,25.601 147.812,25.523 147.734,25.523 C147.502,25.756 147.192,25.988 146.805,26.22 C148.509,27.537 150.135,28.931 151.684,30.325 C151.994,29.551 150.445,27.614 147.967,25.678 M146.263,25.756 C146.573,25.523 146.883,25.291 147.115,25.059 C146.108,24.362 144.714,23.432 143.01,22.58 C143.862,23.432 144.946,24.517 145.721,25.369 C145.953,25.523 146.108,25.601 146.263,25.756 M144.869,24.749 L142.546,22.426 C141.849,22.116 141.384,22.038 141.074,22.116 C142.391,22.89 143.63,23.82 144.869,24.749 M145.411,25.291 C143.94,24.207 142.468,23.123 140.919,22.116 L140.842,22.193 C140.454,22.813 142.623,24.904 144.714,26.685 C145.179,26.453 145.566,26.22 145.876,25.988 L145.411,25.291" fill="#FFFFFF"/>
        <path d="M37.14,29.628 L32.571,34.275 L36.831,29.938 C36.908,29.783 36.986,29.706 37.14,29.628 M36.056,30.867 C37.992,29.009 40.083,27.227 42.02,25.369 C38.999,27.924 35.127,31.564 32.339,34.352 C33.733,33.346 34.817,32.029 36.056,30.867 M37.683,29.086 C37.528,29.163 37.45,29.318 37.373,29.396 L42.097,25.291 L42.097,25.291 C42.02,25.291 42.02,25.291 40.935,26.22 L37.683,29.086" fill="#FFFFFF"/>
        <path d="M20.025,106.068 C20.025,105.991 20.025,105.913 20.025,105.836 C19.018,105.603 18.011,105.371 17.159,105.061 C17.237,106.223 17.237,107.307 17.314,108.469 C17.314,108.934 17.391,109.398 17.391,109.863 C19.328,110.018 19.947,106.997 20.025,106.068 M20.257,103.667 C20.257,101.576 19.87,100.027 19.715,99.485 C19.018,100.957 18.089,102.815 17.469,104.287 C18.321,104.519 19.25,104.751 20.257,104.984 C20.18,104.751 20.257,104.287 20.257,103.667 M17.159,103.667 C17.856,102.196 18.708,100.26 19.483,98.788 C18.708,96.465 17.856,95.845 17.314,95.535 C17.159,98.246 17.082,100.957 17.159,103.667 M16.849,104.364 C16.772,101.344 16.772,98.401 16.927,95.38 L16.617,95.38 C12.667,96.077 13.829,107.617 16.849,109.553 C16.927,109.631 17.082,109.631 17.159,109.708 C17.082,109.243 17.082,108.779 17.082,108.314 C17.004,107.152 16.927,106.068 16.927,104.906 C16.849,104.906 16.772,104.829 16.694,104.829 L16.849,104.364" fill="#FFFFFF"/>
        <path d="M50.616,170.117 C50.539,170.039 50.539,169.962 50.461,169.962 C49.687,169.729 48.525,169.497 47.751,169.265 C49.222,170.504 50.771,171.666 52.397,172.75 C52.63,172.827 53.017,172.905 52.63,172.208 C52.165,171.743 51.313,170.814 50.616,170.117 M48.99,168.568 C46.976,166.786 45.505,165.547 44.963,165.16 C45.66,166.322 46.511,167.793 47.286,168.877 C48.06,169.11 49.145,169.342 49.997,169.497 C49.764,169.342 49.454,169.032 48.99,168.568 M46.744,168.49 C45.969,167.406 44.963,165.934 44.343,164.695 C42.329,163.146 40.935,162.294 39.851,161.907 C42.02,164.308 44.343,166.477 46.744,168.49 M47.054,168.877 C44.42,166.709 41.942,164.386 39.619,161.83 L39.386,161.83 C37.992,161.985 41.323,165.47 45.195,168.413 C47.209,169.962 50.229,172.053 52.088,172.75 C50.461,171.666 48.912,170.426 47.441,169.187 L47.286,169.11 L47.054,168.877" fill="#FFFFFF"/>
        <path d="M82.679,172.285 C82.679,172.208 82.679,172.208 82.679,172.285 L81.285,174.686 C82.447,175.228 83.376,175.46 84.46,175.46 C83.918,174.454 83.299,173.369 82.679,172.285 M80.82,174.376 L82.214,171.898 L78.187,171.898 C78.574,172.595 79.271,173.524 80.82,174.376 M87.094,172.053 C87.094,171.975 87.016,171.898 87.016,171.82 C85.854,171.82 84.228,171.898 83.066,171.975 C83.686,173.214 84.306,174.376 85.003,175.46 C87.171,175.151 87.636,173.447 87.094,172.053 M83.144,171.511 L86.784,171.433 C86.242,170.581 85.622,169.884 84.615,169.265 C84.151,169.884 83.609,170.814 83.144,171.511 M82.679,171.201 L84.151,168.955 C83.144,168.413 82.292,168.18 81.208,168.026 C81.672,169.11 82.137,170.194 82.679,171.201 M82.292,171.511 C81.75,170.426 81.13,169.187 80.588,168.026 L80.356,168.026 C78.032,168.18 77.026,169.652 77.877,171.588 C79.271,171.588 80.975,171.511 82.292,171.511" fill="#FFFFFF"/>
        <path d="M69.203,118.769 C68.971,116.756 68.816,114.665 68.661,112.651 C68.584,111.722 68.506,110.792 68.506,109.863 C66.957,111.877 64.944,114.51 63.472,116.523 C65.254,118.072 66.957,118.769 69.203,118.769 M77.18,109.863 C77.18,109.708 77.18,109.553 77.18,109.398 C74.47,109.476 71.759,109.553 69.126,109.553 C69.203,110.56 69.281,111.567 69.358,112.574 C69.513,114.665 69.668,116.678 69.9,118.692 C74.857,118.072 77.18,113.658 77.18,109.863 M67.654,109.631 L67.964,109.243 C65.254,109.243 62.62,109.243 60.065,109.243 L60.142,109.708 C60.452,112.186 61.304,114.123 63.008,115.981 C64.324,114.045 66.183,111.567 67.654,109.631 C67.654,109.631 67.654,109.631 67.654,109.631 M69.281,108.856 C71.837,108.856 74.47,108.779 77.18,108.701 C76.871,106.223 76.019,104.287 74.315,102.428 C72.921,104.209 70.985,106.61 69.591,108.469 C69.591,108.469 69.591,108.469 69.591,108.469 L69.281,108.856 M69.049,107.772 C70.443,105.991 72.301,103.59 73.695,101.886 C72.146,100.569 70.597,99.872 68.661,99.717 C68.816,102.351 68.894,105.061 69.049,107.772 M68.351,108.391 C68.197,105.449 68.042,102.506 67.964,99.64 L67.577,99.64 C63.24,100.027 60.142,103.59 59.987,108.391 C62.698,108.469 65.563,108.469 68.351,108.391" fill="#FFFFFF"/>
        <path d="M136.195,106.997 L138.363,103.745 C136.969,103.977 135.498,104.209 134.026,104.442 C134.569,105.526 135.188,106.3 136.195,106.997 M139.99,107.849 L139.68,103.435 C139.525,103.435 139.448,103.512 139.293,103.512 L136.814,107.307 C137.899,107.849 138.828,108.004 139.99,107.849 M145.179,102.738 C145.179,102.66 145.256,102.583 145.256,102.506 C143.63,102.815 142.003,103.125 140.3,103.357 L140.609,107.694 C143.785,106.765 144.869,103.9 145.179,102.738 M145.489,99.872 C145.334,97.549 144.249,96.155 143.94,95.768 C142.855,97.626 141.384,100.182 140.222,102.041 L140.3,102.583 C142.081,102.273 143.785,101.963 145.489,101.654 C145.489,101.344 145.566,100.724 145.489,99.872 M140.067,100.879 L143.397,95.226 C142.158,93.986 140.842,93.444 139.138,93.522 C139.448,95.69 139.835,98.633 140.067,100.879 M139.525,101.809 C139.215,99.33 138.906,96 138.518,93.599 L138.209,93.677 C134.259,94.761 132.168,99.408 133.639,103.667 C135.42,103.435 137.202,103.125 138.906,102.815 L139.525,101.809" fill="#FFFFFF"/>
        <path d="M126.359,170.814 C127.676,169.807 129.457,168.49 130.696,167.406 C129.225,167.638 127.289,167.948 125.817,168.18 C125.662,169.342 125.817,170.117 126.359,170.814 M129.225,171.588 C129.922,170.271 130.929,168.568 131.548,167.251 L131.393,167.251 C129.922,168.335 128.063,169.884 126.591,170.968 C127.211,171.588 127.986,171.743 129.225,171.588 M136.892,166.477 C136.969,166.399 137.047,166.322 137.047,166.244 C135.498,166.554 133.484,166.941 131.935,167.174 C131.238,168.49 130.309,170.194 129.612,171.511 C132.555,170.814 135.42,168.49 136.892,166.477 M137.589,165.392 C138.828,163.224 138.286,162.062 138.131,161.675 C136.35,163.146 134.026,165.16 132.245,166.554 L132.168,166.709 C133.717,166.399 135.808,166.012 137.357,165.702 C137.434,165.625 137.511,165.547 137.589,165.392 M132.632,165.857 C134.259,164.54 136.427,162.682 138.054,161.365 C137.434,160.513 136.427,160.203 134.956,160.358 C134.181,161.985 133.329,164.231 132.632,165.857 M131.858,166.477 C132.632,164.695 133.639,162.294 134.336,160.436 L134.026,160.513 C130.309,161.443 126.824,164.54 125.972,167.793 C127.598,167.561 129.767,167.174 131.393,166.941 L131.858,166.477" fill="#FFFFFF"/>
        <path d="M156.331,163.766 C157.957,162.294 159.506,160.668 160.978,159.119 C159.661,160.281 158.035,161.985 156.718,163.146 C156.176,163.843 156.176,163.843 156.176,163.921 C156.176,163.843 156.254,163.843 156.331,163.766 M161.675,158.345 C161.752,158.267 161.752,158.267 161.83,158.19 L160.358,159.119 C159.971,159.506 158.112,161.597 157.028,162.837 C158.422,161.443 160.358,159.739 161.675,158.345 M161.752,158.577 C162.372,157.957 162.837,157.415 162.992,157.26 C162.682,157.493 162.372,157.803 162.062,158.035 L161.597,158.5 C159.971,160.358 158.19,162.062 156.409,163.766 C157.415,162.914 159.661,160.823 161.752,158.577 M162.682,157.338 L163.456,156.718 C164.076,156.021 164.54,155.479 164.85,154.937 C164.153,155.711 163.301,156.641 162.682,157.338 M162.449,157.493 L165.005,154.705 C165.083,154.55 165.392,154.163 165.16,154.24 C165.16,154.24 165.16,154.24 165.16,154.24 C164.308,155.324 163.379,156.486 162.449,157.493 L162.449,157.493 M162.294,157.648 C163.224,156.563 164.153,155.479 165.083,154.317 L165.005,154.395 C164.386,154.86 163.069,156.176 160.823,158.577 C161.288,158.267 161.907,157.957 162.294,157.648" fill="#FFFFFF"/>
        <path d="M180.959,98.091 C181.346,96.077 181.889,93.444 182.198,91.431 C181.501,91.895 180.727,92.36 179.797,92.747 C180.03,94.993 180.417,96.62 180.959,98.091 M183.205,100.26 C183.205,98.246 183.128,96.155 182.973,94.064 C182.895,93.057 182.818,92.05 182.74,91.043 C182.663,91.121 182.586,91.121 182.508,91.198 C182.121,93.444 181.656,96.387 181.191,98.556 C181.889,100.182 182.508,100.724 183.205,100.26 M184.831,89.882 C184.831,89.727 184.831,89.572 184.754,89.417 C184.289,89.959 183.67,90.424 182.895,90.966 C182.973,91.973 183.128,92.98 183.128,93.986 C183.283,96.077 183.36,98.091 183.36,100.182 C184.831,98.478 185.141,93.677 184.831,89.882 M182.586,90.269 C182.586,90.191 182.586,90.191 182.586,90.114 L182.586,90.269 C182.586,90.346 182.586,90.346 182.586,90.269 M182.818,90.191 C183.592,89.649 184.212,89.185 184.677,88.643 C184.289,85.932 183.825,83.996 183.05,82.524 C182.973,84.538 182.895,87.171 182.74,89.185 C182.74,89.494 182.818,89.804 182.818,90.191 M182.586,88.023 L182.895,82.137 C182.353,81.363 181.966,81.053 181.424,81.208 C181.811,83.454 182.198,85.7 182.586,88.023 M182.431,89.03 C182.121,86.397 181.656,83.841 181.114,81.363 L180.959,81.44 C179.72,82.679 179.178,86.939 179.643,92.05 C180.649,91.586 181.501,91.043 182.276,90.579 L182.431,89.03" fill="#FFFFFF"/>
        <path d="M52.32,172.827 C50.694,171.743 49.145,170.504 47.673,169.342 L47.441,169.265 C48.99,170.504 50.539,171.666 52.088,172.827 C58.438,177.242 65.331,180.649 72.766,182.895 L73.386,183.05 C65.796,180.804 58.748,177.319 52.32,172.827 M126.591,171.046 C128.063,169.962 129.999,168.49 131.393,167.329 L130.696,167.406 C129.38,168.413 127.676,169.807 126.359,170.814 C110.637,182.431 102.506,186.535 102.428,186.613 L102.583,186.613 C104.054,185.993 115.594,179.333 126.591,171.046 M161.597,158.422 L162.062,157.957 L161.83,158.112 C161.752,158.19 161.752,158.19 161.675,158.267 C160.281,159.584 158.422,161.443 156.951,162.759 C146.65,171.356 136.737,178.171 121.557,183.205 L121.945,183.05 C133.407,179.023 143.707,174.144 156.641,162.991 C157.957,161.83 159.661,160.203 160.9,158.964 C159.429,160.591 157.88,162.14 156.254,163.611 C153.466,166.167 150.445,168.568 147.347,170.736 L148.354,170.039 C151.142,168.026 153.853,165.857 156.409,163.534 C158.267,161.985 159.971,160.281 161.597,158.422 M131.703,166.786 L131.858,166.399 L131.316,166.786 L131.703,166.786 M136.814,107.385 L139.293,103.59 C138.983,103.667 138.673,103.667 138.363,103.745 L136.195,106.997 C120.706,129.225 99.64,146.728 84.151,168.955 L82.679,171.201 C82.214,170.194 81.672,169.11 81.208,168.026 C75.941,156.099 71.914,138.983 69.9,118.692 C69.668,116.678 69.513,114.665 69.358,112.574 C69.281,111.567 69.203,110.56 69.126,109.553 C68.971,109.553 68.739,109.553 68.584,109.553 L68.429,109.786 C68.506,110.715 68.584,111.644 68.584,112.574 C68.739,114.665 68.894,116.678 69.126,118.692 C71.14,138.983 75.244,156.021 80.588,167.948 C81.13,169.187 81.672,170.349 82.292,171.433 L82.292,171.433 L83.144,171.433 L84.615,169.11 C100.647,147.425 121.79,129.999 136.814,107.385 M181.114,98.633 C181.501,96.465 182.121,93.522 182.431,91.276 C182.353,91.353 182.198,91.431 182.121,91.508 C181.734,93.522 181.346,96.155 180.882,98.169 C178.094,108.314 171.588,132.09 137.899,161.443 C136.272,162.837 134.181,164.618 132.477,165.934 L132.168,166.631 C133.949,165.16 136.272,163.224 138.054,161.752 C162.372,140.067 176.854,118.847 181.114,98.633 M183.437,100.105 C183.437,98.091 183.36,96 183.205,93.909 C183.128,92.902 183.05,91.895 182.973,90.889 C182.895,90.966 182.818,90.966 182.74,91.043 C182.818,92.05 182.973,93.057 182.973,94.064 C183.128,96.155 183.205,98.246 183.205,100.26 C183.36,120.783 176.622,139.603 165.005,154.317 C164.076,155.479 163.224,156.563 162.217,157.648 L162.372,157.57 C163.301,156.486 164.231,155.402 165.083,154.317 C176.777,139.525 183.592,120.706 183.437,100.105 M172.517,144.791 L172.672,144.559 C168.413,150.755 168.258,151.065 165.083,154.705 L162.527,157.493 L162.759,157.338 L164.928,155.014 C167.096,152.381 169.884,148.741 171.82,145.953 L172.517,144.791 M17.546,109.863 C17.469,109.398 17.469,108.934 17.469,108.469 C17.392,107.307 17.314,106.223 17.314,105.061 C17.237,105.061 17.082,104.984 17.004,104.984 C17.082,106.146 17.082,107.23 17.159,108.391 C17.159,108.856 17.237,109.321 17.237,109.786 C19.095,130.541 27.305,148.586 39.696,161.907 C42.02,164.463 44.498,166.786 47.131,168.955 L46.821,168.568 C44.42,166.554 42.097,164.308 39.929,161.985 C27.537,148.664 19.328,130.619 17.546,109.863 M139.603,102.66 L139.525,101.809 L138.906,102.815 C139.138,102.738 139.37,102.738 139.603,102.66 M73.386,43.181 C73.773,41.477 74.16,39.774 74.547,38.07 C74.392,38.07 74.315,38.07 74.16,38.07 L74.005,38.225 C73.618,39.851 73.153,41.555 72.766,43.259 C69.203,59.368 67.345,79.117 67.887,99.717 C67.964,102.66 68.119,105.526 68.274,108.469 C68.352,108.469 68.429,108.469 68.429,108.469 L68.894,107.849 C68.739,105.139 68.661,102.428 68.584,99.717 C68.197,79.039 69.9,59.29 73.386,43.181 M149.206,29.783 L146.65,26.375 C146.573,26.453 146.495,26.453 146.495,26.53 L148.741,29.473 C160.203,48.138 158.654,67.112 143.475,95.226 L140.145,100.879 L140.222,102.041 C141.306,100.182 142.855,97.704 143.94,95.768 C149.98,84.383 166.089,54.101 149.206,29.783 M175.073,51.778 L174.376,50.539 C179.178,59.755 182.431,66.957 182.895,82.06 L182.586,87.946 C182.276,85.622 181.889,83.376 181.346,81.13 C177.009,61.071 166.322,43.336 151.684,30.248 C150.135,28.854 148.509,27.46 146.805,26.143 C146.728,26.143 146.728,26.22 146.65,26.22 C148.354,27.537 149.98,28.931 151.529,30.325 C166.089,43.491 176.777,61.149 181.037,81.208 C181.579,83.763 182.043,86.319 182.353,88.875 L182.198,90.424 C182.276,90.346 182.431,90.269 182.508,90.191 L182.508,90.037 C182.508,90.114 182.508,90.114 182.508,90.191 C182.586,90.114 182.663,90.114 182.74,90.037 C182.74,89.727 182.663,89.417 182.586,89.03 C182.663,87.016 182.895,84.383 182.895,82.369 C182.663,74.702 182.276,64.944 175.073,51.778 M32.571,34.197 L31.254,35.669 L32.416,34.352 C35.204,31.564 39.077,27.924 42.097,25.369 C56.037,15.068 68.506,8.717 90.889,6.626 C76.174,8.175 61.381,10.731 42.097,25.291 L37.373,29.396 C37.373,29.396 37.373,29.396 37.295,29.473 C37.14,29.628 36.908,29.783 36.753,29.938 C36.753,29.938 36.753,29.938 36.831,29.86 L32.571,34.197 M79.194,7.401 C82.911,6.394 86.784,6.162 90.889,6.704 C86.861,6.084 82.989,6.317 79.349,7.323 L79.194,7.401 M87.094,5.929 C88.255,6.007 88.255,6.007 90.889,6.626 C88.255,5.929 88.178,5.929 87.249,5.929 L87.094,5.929 M99.717,5.465 C95.768,5.542 93.677,5.542 90.889,6.704 C93.754,5.774 95.226,5.387 100.027,5.465 L99.717,5.465 M143.01,22.58 C128.605,10.189 111.489,5 90.889,6.626 C111.644,5.077 128.605,10.189 142.546,22.348 L144.869,24.671 C143.63,23.742 142.313,22.813 141.074,21.961 C126.437,12.28 109.166,6.626 90.889,6.626 C109.089,6.626 126.359,12.28 140.919,22.038 C142.468,23.045 143.94,24.129 145.411,25.214 L145.953,25.833 C146.031,25.756 146.108,25.678 146.263,25.678 C146.108,25.523 145.953,25.446 145.798,25.291 L143.01,22.58 M114.742,26.143 C107.462,15.997 99.33,9.027 90.889,6.626 C99.175,9.027 107.23,15.997 114.355,26.143 C115.517,27.769 116.601,29.473 117.685,31.254 L118.46,31.719 C117.298,29.86 116.059,27.924 114.742,26.143 M76.019,32.726 C79.814,19.947 84.925,10.576 90.889,6.704 C84.77,10.654 79.581,19.947 75.632,32.726 C75.167,34.197 74.702,35.824 74.315,37.373 L74.392,37.528 C74.547,37.528 74.625,37.528 74.78,37.528 C75.167,35.824 75.554,34.275 76.019,32.726 M49.609,27.227 C61.226,16.772 75.399,9.414 90.889,6.626 C75.244,9.337 61.071,16.694 49.377,27.15 C45.04,31.177 41.013,35.514 37.373,40.238 C25.601,55.65 18.166,74.934 17.004,95.38 C16.849,98.323 16.772,101.344 16.927,104.364 L17.237,103.59 C17.159,100.879 17.237,98.169 17.392,95.458 C18.553,74.934 25.988,55.65 37.683,40.238 C38.922,38.534 40.316,36.908 41.632,35.359 C41.632,35.359 41.555,35.359 41.555,35.359 C41.71,35.204 41.865,34.972 42.02,34.817 C42.02,34.817 42.097,34.817 42.097,34.817 C44.42,32.184 46.899,29.628 49.609,27.227" fill="#FFFFFF"/>
        <path d="M67.654,109.631 L67.964,109.243 C67.964,109.243 67.964,109.243 67.964,109.243 L67.654,109.631 C67.654,109.631 67.654,109.631 67.654,109.631 M139.68,103.512 L139.603,102.738 C139.37,102.738 139.138,102.815 138.906,102.815 C137.202,103.125 135.42,103.357 133.639,103.667 C128.605,104.442 123.261,105.139 117.685,105.758 C103.9,107.307 90.114,108.314 77.18,108.701 C74.47,108.779 71.837,108.856 69.281,108.856 L68.661,109.631 C68.816,109.631 69.049,109.631 69.203,109.631 C71.837,109.631 74.547,109.553 77.258,109.476 C90.191,109.089 103.977,108.082 117.763,106.533 C123.416,105.913 128.837,105.216 134.026,104.442 C135.498,104.209 136.969,103.977 138.363,103.745 C138.673,103.667 138.983,103.667 139.293,103.59 C139.37,103.512 139.525,103.512 139.68,103.512 M186.071,86.397 L185.993,85.545 C186.071,86.551 185.683,87.558 184.677,88.565 C184.212,89.107 183.592,89.572 182.818,90.114 C182.74,90.191 182.663,90.191 182.586,90.269 C182.586,90.269 182.586,90.269 182.586,90.269 C182.508,90.346 182.431,90.424 182.276,90.501 C181.501,90.966 180.649,91.508 179.643,91.973 C172.905,95.38 160.978,98.788 145.411,101.654 C143.707,101.963 142.003,102.273 140.222,102.583 L140.3,103.357 C142.003,103.048 143.63,102.815 145.256,102.506 C160.978,99.64 172.982,96.232 179.797,92.825 C180.649,92.36 181.501,91.895 182.198,91.508 C182.276,91.431 182.431,91.353 182.508,91.276 C182.586,91.198 182.663,91.198 182.74,91.121 C182.818,91.043 182.895,91.043 182.973,90.966 C183.747,90.424 184.367,89.959 184.831,89.417 C185.761,88.41 186.148,87.403 186.071,86.397 M118.072,38.225 L118.924,34.275 C118.692,34.275 118.537,34.352 118.305,34.352 L117.453,37.915 C112.031,54.101 106.223,61.381 73.618,101.886 C72.224,103.667 70.365,105.991 68.971,107.772 L68.506,108.391 C68.816,108.391 69.203,108.391 69.513,108.391 C70.907,106.61 72.843,104.132 74.237,102.351 C104.132,65.331 114.2,52.862 118.072,38.225 M119.079,33.578 L118.614,32.803 L118.46,33.733 C118.614,33.655 118.847,33.655 119.079,33.578 L119.079,33.578 M119.311,27.769 C118.537,22.348 116.523,7.866 90.889,6.626 L90.889,6.626 C97.394,7.169 117.375,8.717 118.769,27.382 C118.769,28.776 118.769,30.635 118.614,32.029 L119.079,32.803 C119.234,31.332 119.466,29.318 119.311,27.769 M102.273,5.542 L102.041,5.542 C98.556,5.542 96.929,5.542 90.889,6.626 C95.923,5.774 98.246,5.387 102.273,5.542" fill="#FFFFFF"/>
        <path d="M73.618,38.07 L73.928,37.76 L73.773,37.45 C72.611,37.45 71.449,37.45 70.288,37.45 C59.755,37.45 50.771,36.753 44.653,35.437 C43.723,35.204 42.871,35.049 42.02,34.817 C42.02,34.817 41.942,34.817 41.942,34.817 C41.787,34.972 41.632,35.204 41.477,35.359 C41.477,35.359 41.555,35.359 41.555,35.359 C42.329,35.591 43.181,35.824 44.111,35.979 C50.229,37.295 59.368,37.992 70.055,37.992 C71.217,38.07 72.379,38.07 73.618,38.07 M119.389,34.197 L119.079,33.655 C119.079,33.655 119.079,33.655 119.002,33.655 C118.769,33.655 118.614,33.733 118.382,33.733 C116.911,33.965 115.362,34.197 113.813,34.43 C111.025,34.817 108.159,35.204 105.139,35.514 C96,36.521 86.784,37.14 78.265,37.373 C77.026,37.373 75.786,37.45 74.625,37.45 C74.47,37.45 74.392,37.45 74.237,37.45 L74.392,37.76 L74.083,38.07 C74.237,38.07 74.315,38.07 74.47,38.07 C75.709,38.07 76.948,37.992 78.187,37.992 C86.784,37.76 96.077,37.14 105.294,36.056 C108.391,35.746 111.334,35.359 114.123,34.894 C115.517,34.662 116.911,34.507 118.227,34.275 C118.46,34.275 118.614,34.197 118.847,34.197 C119.079,34.197 119.234,34.197 119.389,34.197 M147.425,21.419 L146.805,20.954 C148.664,22.193 148.664,23.587 147.115,24.981 C146.883,25.214 146.573,25.446 146.263,25.678 C146.186,25.756 146.108,25.833 145.953,25.833 C145.566,26.066 145.179,26.298 144.791,26.53 C140.842,28.699 133.562,30.79 123.958,32.649 C122.564,32.958 121.015,33.191 119.544,33.423 L119.854,33.965 C121.325,33.733 122.797,33.423 124.191,33.191 C133.949,31.332 141.306,29.163 145.334,26.995 C145.721,26.763 146.108,26.608 146.418,26.375 C146.495,26.298 146.573,26.298 146.573,26.22 C146.573,26.22 146.65,26.143 146.65,26.143 C146.728,26.143 146.728,26.066 146.805,26.066 C147.115,25.833 147.425,25.601 147.734,25.369 C149.283,24.052 149.283,22.658 147.425,21.419 M36.753,29.938 C36.908,29.783 37.14,29.628 37.295,29.473 C37.295,29.473 37.295,29.473 37.373,29.396 C37.45,29.318 37.605,29.163 37.683,29.086 L37.14,29.628 C36.986,29.706 36.908,29.783 36.753,29.938 C36.831,29.938 36.831,29.938 36.753,29.938" fill="#FFFFFF"/>
        <path d="M93.986,5.465 L94.141,5.465 C93.134,5.697 91.818,6.162 90.966,6.704 C91.74,6.162 92.98,5.542 93.986,5.465" fill="#FFFFFF"/>
        <path d="M153.853,166.089 C147.657,170.891 146.96,171.433 141.926,174.454 C137.744,176.777 134.104,178.791 128.063,181.114 C125.43,182.043 120.551,183.825 113.038,185.296 C117.143,183.902 123.339,181.889 129.689,171.511 C130.386,170.194 131.393,168.49 132.013,167.174 C133.562,166.864 135.575,166.554 137.124,166.244 C142.546,165.083 153.93,162.682 160.436,159.119 L161.907,158.19 L162.14,158.035 L163.069,157.26 L163.534,156.796 C157.725,162.759 156.873,163.611 153.853,166.089 M153.853,166.089 C160.281,160.281 160.591,160.049 163.998,156.254 L163.456,156.796 L162.682,157.415 L162.449,157.57 L162.449,157.57 L162.294,157.648 L160.823,158.577 C158.19,159.894 152.691,162.759 137.357,165.78 C135.808,166.089 133.717,166.477 132.168,166.786 L132.245,166.631 L132.555,165.934 C133.252,164.308 134.181,162.062 134.801,160.358 C138.363,149.283 142.081,135.188 140.609,107.772 L140.3,103.435 L140.222,102.66 L140.145,102.118 L140.067,100.957 C139.835,98.711 139.448,95.768 139.138,93.599 C137.279,81.905 134.104,62.388 122.409,38.999 L119.776,34.197 L119.466,33.655 L119.079,33.036 L118.614,32.261 L118.537,32.106 C118.537,32.106 118.46,32.029 118.46,32.029 L117.685,31.564 C116.059,30.557 113.968,29.163 112.341,28.079 C101.963,21.186 87.791,11.815 90.811,6.859 L90.811,6.859 C88.875,11.815 96.852,18.243 112.264,28.466 C114.045,29.628 116.369,31.177 118.15,32.339 L118.537,32.958 L119.002,33.733 C119.002,33.733 119.002,33.733 119.002,33.81 L119.312,34.352 L121.867,39.154 C126.049,47.906 133.949,64.169 138.363,93.754 C138.673,96.232 139.06,99.485 139.37,101.963 L139.448,102.815 L139.525,103.59 L139.835,108.004 C140.377,119.699 141.306,139.293 134.181,160.513 C133.484,162.372 132.555,164.773 131.703,166.554 L131.548,166.941 L131.161,167.019 C129.534,167.251 127.366,167.638 125.74,167.871 C119.079,168.8 105.294,170.814 86.551,171.511 L82.911,171.588 L82.06,171.588 L82.911,171.588 L82.447,172.285 C82.447,172.285 82.447,172.285 82.447,172.285 C83.066,173.447 83.609,174.454 84.228,175.46 C88.72,182.74 93.754,186.768 98.943,186.69 L99.098,186.69 C93.986,186.768 89.03,182.74 84.693,175.46 C84.073,174.376 83.376,173.214 82.757,171.975 L86.706,171.82 C93.522,171.511 107.772,170.891 125.585,168.18 C127.056,167.948 128.992,167.638 130.464,167.406 L131.161,167.329 L131.316,167.329 C130.619,168.645 129.767,170.349 128.992,171.666 C125.894,176.312 121.248,183.36 112.574,185.451 C116.678,184.677 121.557,183.592 127.831,181.269 C132.245,179.488 136.04,177.939 141.694,174.609 C147.347,170.969 150.135,169.265 153.853,166.089" fill="#FFFFFF"/>
        <path d="M69.203,10.111 L69.513,10.034 C73.695,8.717 78.884,7.091 90.889,6.626 C84.615,7.014 76.716,7.478 69.203,10.111" fill="#FFFFFF"/>
        <path d="M82.679,172.208 L81.363,174.609 C79.659,178.558 77.18,184.599 88.488,186.071 L88.178,186.071 C83.454,185.219 76.329,183.98 80.82,174.376 L82.214,171.898 L78.187,171.898 C72.146,171.898 59.677,171.82 50.384,169.884 C49.532,169.729 48.448,169.42 47.673,169.187 L47.441,169.11 L47.286,169.032 L47.054,168.8 L46.744,168.413 C45.969,167.329 44.963,165.857 44.343,164.618 C40.471,154.163 42.329,143.785 62.853,115.826 C64.247,113.89 66.183,111.334 67.654,109.476 L67.964,109.089 C67.964,109.089 67.964,109.089 67.964,109.089 C65.254,109.089 62.62,109.089 60.065,109.089 C43.491,108.934 29.396,107.772 20.102,105.603 C19.095,105.371 18.089,105.139 17.237,104.829 C17.159,104.829 17.004,104.751 16.927,104.751 C16.849,104.751 16.772,104.674 16.694,104.674 L16.927,104.209 L17.237,103.435 C17.934,101.963 18.786,100.027 19.56,98.556 C29.241,81.75 35.437,75.631 70.133,41.477 L73.54,38.07 L73.85,37.76 L73.695,37.45 L72.456,34.12 C70.055,24.284 69.823,12.203 90.889,6.626 C74.547,11.273 69.049,19.637 72.998,33.81 L74.315,37.373 L74.392,37.528 L74.547,37.837 L74.237,38.147 L74.083,38.302 L70.365,42.02 C36.986,75.012 29.009,82.834 19.637,99.563 C18.94,101.034 18.011,102.893 17.391,104.364 C18.243,104.597 19.173,104.829 20.18,105.061 C29.473,107.152 43.491,108.391 59.987,108.469 C62.698,108.469 65.486,108.469 68.351,108.469 C68.429,108.469 68.506,108.469 68.506,108.469 C68.816,108.469 69.203,108.469 69.513,108.469 C69.513,108.469 69.513,108.469 69.513,108.469 L69.203,108.856 L68.584,109.631 L68.429,109.863 C66.88,111.877 64.866,114.51 63.395,116.523 C49.687,135.42 38.844,152.071 44.963,165.16 C45.66,166.322 46.511,167.793 47.286,168.877 C48.06,169.11 49.145,169.342 49.997,169.497 C53.714,170.194 61.304,171.588 77.955,171.511 L82.292,171.433 L82.292,171.433 L83.144,171.433 L82.679,172.208" fill="#FFFFFF"/>
      </g>
    </g>
    <path d="M10.344,139.37 C10.344,139.293 10.344,139.215 10.421,139.138 C10.421,139.138 10.421,139.06 10.421,139.06 C10.421,139.215 10.344,139.293 10.344,139.37 z" fill="#FFFFFF" opacity="0.42"/>
    <path d="M10.886,136.272 C10.886,136.35 10.886,136.35 10.886,136.427 C10.963,136.195 10.963,135.885 11.041,135.653 C10.963,135.885 10.886,136.04 10.886,136.272 z M10.421,139.138 C10.421,139.215 10.421,139.293 10.344,139.37 C10.344,139.293 10.421,139.215 10.421,139.138 C10.421,139.06 10.421,139.138 10.421,139.138 z" fill="#FFFFFF"/>
    <path d="M10.886,89.03 C10.886,89.107 10.886,89.107 10.886,89.185 C10.963,88.952 10.963,88.643 11.041,88.41 C10.963,88.643 10.886,88.797 10.886,89.03 z M10.421,91.895 C10.421,91.973 10.421,92.05 10.344,92.128 C10.344,92.05 10.421,91.973 10.421,91.895 C10.421,91.818 10.421,91.895 10.421,91.895 z M102.273,5.542 L102.041,5.542 L103.512,5.697 L102.273,5.542 z" fill="#FFFFFF"/>
    <g>
      <path d="M58.206,60.762 C58.051,61.071 57.819,61.304 57.586,61.536 L57.586,61.536 C57.586,61.536 57.586,61.536 57.586,61.536 C57.586,61.536 57.586,61.536 57.509,61.536 C57.277,61.691 57.044,61.846 56.812,62.001 C52.862,63.705 49.454,65.718 46.511,67.887 C46.279,68.042 46.124,68.197 45.892,68.351 L45.892,68.351 C38.457,74.16 34.352,81.285 32.106,86.474 C31.951,86.784 31.874,87.094 31.719,87.403 C30.248,91.121 29.706,93.754 29.706,93.831 C29.473,95.303 28.234,96.31 26.84,96.31 C26.685,96.31 26.53,96.31 26.375,96.31 C24.749,96 23.742,94.529 23.974,92.902 C24.052,92.67 24.284,91.431 24.826,89.417 C24.904,89.107 24.981,88.797 25.136,88.565 C27.227,81.982 32.803,69.436 46.589,60.762 C46.821,60.607 46.976,60.529 47.209,60.374 C49.067,59.213 51.158,58.129 53.327,57.122 C53.327,57.122 53.404,57.122 53.404,57.122 C53.404,57.122 53.404,57.122 53.404,57.122 C53.714,56.967 54.024,56.812 54.334,56.657 C54.411,56.657 54.489,56.58 54.566,56.58 C56.037,55.96 57.741,56.657 58.438,58.129 C58.748,59.058 58.671,59.987 58.206,60.762 z" fill="#FFFFFF"/>
      <path d="M64.402,76.871 C61.226,78.187 58.671,79.814 56.425,81.595 C56.037,81.905 55.65,82.214 55.263,82.602 L55.263,82.602 C53.404,84.306 51.855,86.087 50.616,87.868 C50.461,88.1 50.306,88.255 50.152,88.488 C48.912,90.346 47.983,92.205 47.286,93.754 C47.131,94.141 46.976,94.606 46.821,94.993 C45.892,97.317 45.66,98.866 45.66,98.943 C45.427,100.414 44.188,101.421 42.794,101.421 C42.639,101.421 42.484,101.421 42.329,101.344 C40.703,101.111 39.619,99.563 39.929,97.936 C40.006,97.549 40.78,93.212 43.723,87.946 C45.505,84.693 48.06,81.13 51.778,77.877 C54.566,75.399 57.974,73.153 62.233,71.449 C63.705,70.83 65.409,71.527 66.106,72.998 C66.648,74.47 65.951,76.174 64.402,76.871 z" fill="#FFFFFF"/>
      <path d="M165.237,104.364 C165.237,104.674 165.237,104.984 165.16,105.216 C164.85,108.856 163.998,112.419 162.682,115.826 C160.9,120.473 158.19,124.733 154.86,128.373 C154.782,128.45 154.627,128.605 154.55,128.683 C154.395,128.837 154.24,128.992 154.085,129.147 L154.008,129.225 C153.233,129.999 152.459,130.696 151.607,131.471 C151.142,131.858 150.677,132.245 150.135,132.632 C150.135,132.632 150.058,132.71 150.058,132.71 C149.748,132.942 149.438,133.174 149.129,133.407 C149.051,133.484 148.896,133.562 148.819,133.639 C148.664,133.717 148.586,133.794 148.431,133.871 C148.122,134.026 147.889,134.259 147.657,134.414 C147.347,134.568 147.115,134.801 146.805,134.956 C145.256,135.885 143.63,136.737 142.003,137.511 L120.473,146.96 L118.227,147.967 L117.763,148.199 L114.123,149.748 C113.735,149.903 113.271,150.135 112.883,150.29 C112.883,150.29 112.883,150.29 112.883,150.29 C112.341,150.523 111.877,150.755 111.334,151.065 C107.152,153.233 103.512,156.176 100.492,159.506 C100.337,159.661 100.182,159.894 100.027,160.049 C97.162,163.456 94.838,167.251 93.212,171.356 C92.825,172.363 92.515,173.369 92.205,174.299 C92.128,174.454 92.128,174.609 92.05,174.841 C91.586,176.39 91.276,177.939 90.966,179.565 C90.966,179.565 90.966,179.643 90.966,179.643 C90.889,179.952 90.889,180.262 90.811,180.572 C90.734,181.114 90.656,181.656 90.656,182.198 C90.656,182.198 90.656,182.198 90.656,182.198 C90.579,182.508 90.579,182.818 90.579,183.128 C90.579,183.205 90.579,183.283 90.579,183.36 C90.579,183.67 90.501,184.057 90.501,184.367 C90.501,184.367 90.501,184.367 90.501,184.367 L90.501,184.444 C90.501,184.444 90.501,184.522 90.501,184.599 C90.501,184.599 90.501,184.599 90.501,184.599 C90.501,185.296 90.424,185.916 90.501,186.613 C90.501,186.613 90.501,186.69 90.501,186.69 C90.346,186.69 89.804,186.613 89.185,186.458 C86.551,186.226 83.996,185.838 81.44,185.451 C81.517,185.219 81.595,185.064 81.595,184.831 C81.595,184.831 81.595,184.754 81.595,184.754 C81.595,184.754 81.595,184.754 81.595,184.754 C81.595,184.677 81.595,184.677 81.595,184.599 C81.75,184.057 81.75,183.515 81.75,182.973 C81.75,182.973 81.75,182.973 81.75,182.895 C81.75,182.74 81.75,182.508 81.672,182.276 C81.672,182.198 81.517,181.501 81.44,180.262 C81.44,180.185 81.44,180.03 81.44,179.952 C81.44,179.875 81.44,179.72 81.363,179.643 C81.363,179.643 81.363,179.565 81.363,179.565 L81.363,179.565 L81.363,179.488 L81.363,179.255 C81.363,179.255 81.363,179.178 81.363,179.178 C81.208,177.939 81.13,176.312 80.975,174.454 C80.975,174.299 80.975,174.144 80.975,173.911 C80.898,173.137 80.898,172.363 80.898,171.588 C80.898,171.433 80.898,171.356 80.898,171.201 C80.743,165.934 80.975,159.274 81.982,152.071 C81.982,151.839 82.06,151.607 82.06,151.374 C82.06,151.297 82.06,151.297 82.06,151.297 C82.06,151.065 82.137,150.91 82.137,150.677 C82.137,150.677 82.137,150.6 82.137,150.6 C82.214,150.368 82.214,150.135 82.292,149.826 C82.369,149.438 82.447,149.051 82.524,148.741 C82.524,148.509 82.602,148.354 82.602,148.122 C82.679,147.812 82.679,147.58 82.757,147.27 C84.538,138.286 87.558,130.464 91.586,123.881 C91.74,123.571 91.973,123.339 92.128,123.029 C97.394,114.897 104.364,108.624 113.116,104.287 C113.503,104.132 113.813,103.9 114.2,103.745 C114.82,103.435 115.439,103.125 116.136,102.893 C116.136,102.893 116.136,102.893 116.136,102.893 L116.833,102.583 L117.453,102.351 L118.15,102.041 L133.329,95.613 C133.717,95.458 134.104,95.226 134.491,94.993 C134.723,94.838 134.878,94.683 135.033,94.529 C137.047,92.747 137.821,89.804 136.737,87.249 C136.66,87.016 136.505,86.784 136.427,86.551 L135.188,83.376 C134.801,82.292 133.484,81.75 132.4,82.214 L129.07,83.609 C128.837,83.686 128.605,83.763 128.295,83.841 L126.359,84.693 L125.662,85.003 L117.685,88.41 L116.988,88.72 L111.18,91.198 C109.786,91.818 108.391,92.437 107.075,93.134 C106.843,93.289 106.61,93.367 106.378,93.522 C105.216,94.141 104.054,94.761 102.893,95.458 C102.583,95.613 102.196,95.845 101.886,96.077 C94.064,100.879 87.558,107.152 82.369,114.82 C82.137,115.129 81.982,115.362 81.75,115.671 C77.18,122.642 73.618,130.774 71.294,139.912 C71.217,140.145 71.14,140.454 71.062,140.764 C70.52,142.778 70.133,144.869 69.746,146.96 C69.668,147.425 69.591,147.812 69.513,148.199 C68.894,151.684 68.894,155.944 68.661,159.274 C68.584,159.274 68.429,159.197 68.351,159.197 C68.274,159.042 68.197,158.809 68.119,158.577 C67.964,158.035 67.732,157.493 67.654,157.183 L67.654,157.183 L62.466,145.411 L61.614,143.475 L57.741,134.646 L57.044,133.097 L56.657,132.168 C56.425,131.626 56.192,131.083 55.96,130.464 C55.96,130.464 55.96,130.464 55.96,130.464 L55.96,130.464 C55.96,130.464 55.96,130.386 55.96,130.386 C55.805,129.999 55.65,129.534 55.495,129.147 C55.495,129.147 55.495,129.147 55.495,129.147 C55.031,127.908 54.721,126.669 54.411,125.43 C53.249,120.551 53.094,115.517 53.791,110.715 C53.869,110.405 53.869,110.018 53.946,109.708 C54.411,107.152 55.108,104.597 56.037,102.118 C56.192,101.731 56.347,101.344 56.502,100.879 C56.812,100.182 57.122,99.408 57.509,98.711 C57.586,98.478 57.741,98.323 57.819,98.091 C58.129,97.471 58.438,96.929 58.748,96.31 C58.903,96.077 59.058,95.768 59.213,95.535 C59.213,95.535 59.213,95.535 59.29,95.458 C62.62,90.114 67.19,85.545 72.921,82.214 C72.998,82.214 72.998,82.137 73.076,82.137 C74.005,81.595 74.934,81.13 75.941,80.588 C76.251,80.433 76.561,80.356 76.871,80.201 L78.807,79.349 L78.884,79.349 L78.884,79.349 L79.271,79.194 L79.969,78.884 L79.969,78.884 L81.285,78.342 L81.44,78.265 L81.44,78.265 C81.44,78.265 81.44,78.265 81.44,78.265 L82.214,77.955 L82.214,77.955 L84.925,76.793 L85.312,76.638 L85.312,76.638 L86.242,76.251 L86.242,76.251 L88.488,75.244 L89.262,74.857 L93.289,73.076 L98.478,70.83 L103.59,68.584 L105.139,67.887 L105.913,67.5 L107.152,66.957 L107.927,66.648 L114.82,63.627 L115.517,63.317 L135.653,54.489 L135.808,54.411 L135.885,54.411 L136.195,54.256 L136.66,54.024 L136.737,54.024 L136.737,54.024 L136.737,54.024 L137.589,53.637 L140.067,52.552 C142.236,51.623 144.637,51.855 146.573,53.094 C146.65,53.094 146.65,53.172 146.728,53.172 C147.734,53.869 148.586,54.876 149.129,56.037 L153.233,65.254 L153.233,65.254 L153.853,66.725 L153.853,66.725 L153.93,66.88 L154.627,68.351 L158.267,76.638 L158.654,77.413 L161.52,83.996 L161.985,85.003 L162.062,85.235 L162.217,85.545 L162.294,85.622 C162.372,85.854 162.449,86.009 162.527,86.242 C162.604,86.319 162.604,86.474 162.682,86.551 C162.837,86.861 162.914,87.094 162.991,87.403 C164.308,90.811 165.083,94.374 165.392,97.859 C165.47,98.246 165.47,98.711 165.47,99.098 C165.315,100.957 165.315,102.66 165.237,104.364 z" fill="#FFFFFF"/>
    </g>
    <path d="M185.993,85.545 C185.838,84.46 185.064,83.454 183.592,82.524 C181.889,81.363 179.333,80.356 176.003,79.504 C176.003,75.477 174.221,71.372 171.975,70.055 L171.82,69.978 C169.187,58.903 164.85,40.238 145.256,22.503 C145.256,22.503 145.334,22.503 145.334,22.503 C145.798,22.426 145.566,22.038 145.488,21.883 C146.728,22.658 147.967,23.51 149.206,24.284 C147.967,23.432 146.728,22.58 145.411,21.651 C145.024,21.109 144.327,20.412 143.243,19.56 C145.024,20.102 146.418,20.644 147.425,21.264 C147.502,21.264 147.502,21.341 147.58,21.341 L146.96,20.877 C146.96,20.877 146.883,20.877 146.883,20.799 C145.953,20.18 144.559,19.56 142.778,19.095 C138.906,16.23 134.026,13.906 132.168,13.442 C131.703,13.364 131.626,13.364 131.548,13.442 C131.548,13.597 131.626,13.751 132.09,14.216 C120.628,9.182 114.432,7.246 104.364,5.697 L103.977,5.62 L104.209,5.697 C109.553,7.014 108.391,10.111 106.146,14.294 C105.294,13.984 104.597,13.829 103.745,13.829 C103.667,13.829 103.59,13.829 103.512,13.829 C100.724,8.95 98.556,5.774 94.374,5.387 L94.219,5.387 C96.232,5.697 99.098,6.084 103.048,13.829 C102.506,13.906 102.118,14.061 101.731,14.294 C88.1,6.704 88.1,6.704 87.403,6.084 C87.481,6.007 87.481,5.929 87.558,5.929 L87.403,5.929 L87.403,5.929 C87.326,6.007 87.326,6.084 87.249,6.162 C88.023,6.936 88.023,6.936 101.499,14.526 C101.034,14.913 100.492,15.688 100.802,16.927 C94.064,17.237 86.939,17.779 79.891,18.631 C74.47,19.173 69.668,19.87 65.331,20.567 C65.331,20.567 65.409,20.489 65.409,20.412 C67.035,18.321 68.042,15.533 65.254,15.92 L65.021,15.997 C69.281,11.738 74.083,8.795 79.349,7.323 L79.194,7.401 C73.85,8.872 69.049,11.815 64.789,16.075 C63.472,16.462 62.156,17.082 60.529,18.166 C61.149,16.307 61.846,14.216 65.254,12.125 C62.775,13.519 60.452,15.533 60.065,18.476 C59.6,18.863 58.051,19.947 56.812,21.419 C56.425,21.806 56.27,22.193 56.115,22.348 C47.363,24.284 41.168,26.453 38.302,28.621 C38.147,28.776 37.915,28.931 37.76,29.086 L37.45,29.396 C37.528,29.318 37.683,29.241 37.76,29.163 C40.626,26.995 46.976,24.749 55.805,22.813 C55.805,22.89 55.728,22.968 55.728,22.968 C55.031,24.362 55.418,24.981 55.573,25.214 C20.102,53.482 13.751,77.723 10.963,88.023 C10.963,88.023 10.654,86.551 10.034,86.861 L9.957,86.939 C12.435,59.987 22.89,45.66 32.494,34.352 L31.254,35.746 C13.132,56.734 10.963,76.483 9.802,87.094 C8.795,88.952 8.485,94.606 8.717,99.02 C8.872,101.809 9.414,106.455 10.499,106.068 C14.991,133.252 26.685,147.502 37.218,158.654 C37.14,159.739 39.696,162.449 42.174,164.463 C43.801,165.78 46.511,167.638 47.518,167.483 C60.142,176.39 71.449,180.882 81.517,183.128 C84.306,183.747 87.016,184.212 89.649,184.522 C89.649,184.522 89.649,184.522 89.649,184.522 C86.784,184.134 84.073,183.67 81.517,183.05 C66.803,179.72 56.425,173.369 47.596,167.406 C47.596,167.406 47.596,167.406 47.596,167.329 C47.751,167.019 47.131,166.244 46.899,166.012 C56.657,171.278 68.739,176.08 81.13,179.797 C84.073,180.727 87.016,181.501 89.959,182.276 C89.959,182.276 89.959,182.276 89.959,182.276 C87.249,181.579 84.306,180.727 81.053,179.72 C71.062,176.622 58.98,172.053 46.511,165.625 C45.737,164.695 44.808,163.843 43.569,162.682 L43.336,162.449 C47.441,158.887 57.509,156.331 62.311,155.169 C62.388,155.247 62.466,155.324 62.543,155.402 C63.937,156.873 65.951,158.5 68.119,159.197 C68.197,159.197 68.351,159.274 68.429,159.274 C68.661,155.944 68.661,151.684 69.281,148.199 C67.345,146.34 64.944,145.256 62.698,145.411 L62.388,145.489 C62.388,145.489 62.388,145.411 62.311,145.411 C62.311,145.411 62.233,145.411 62.233,145.411 C62.078,145.411 61.923,145.489 61.846,145.489 C61.846,145.566 61.923,145.566 61.923,145.643 C60.529,146.186 59.755,147.115 59.6,148.741 C43.646,137.899 19.483,121.635 11.583,101.886 C11.738,99.795 11.815,97.704 11.738,95.148 C14.526,93.212 18.94,91.276 24.826,89.494 C26.917,88.797 29.241,88.178 31.719,87.481 C31.797,87.171 31.951,86.861 32.106,86.551 C29.551,87.171 27.227,87.868 25.059,88.565 C19.018,90.424 14.449,92.437 11.66,94.374 C11.583,91.895 11.351,90.269 11.041,88.72 L10.963,88.488 C10.886,88.72 10.886,88.952 10.809,89.262 C10.809,89.262 10.809,89.185 10.809,89.107 C10.809,88.875 10.886,88.643 10.963,88.488 C16.617,65.409 30.403,45.892 55.573,25.446 C55.573,25.446 55.65,25.523 55.65,25.523 C56.192,25.911 56.967,25.833 57.277,25.833 C51.855,34.972 48.06,46.976 46.434,60.917 C46.124,63.395 45.892,65.951 45.814,68.584 C46.047,68.429 46.202,68.274 46.434,68.119 C46.589,65.563 46.821,63.008 47.054,60.529 C48.603,46.744 52.32,34.894 57.664,25.756 C58.671,25.523 59.677,25.136 60.839,24.439 C64.014,30.79 70.288,36.289 78.729,43.414 C78.884,43.569 79.117,43.723 79.271,43.878 C79.271,43.878 79.271,43.878 79.271,43.878 C98.246,59.523 100.647,61.536 106.843,67.112 C107.772,67.964 108.779,68.816 109.94,69.9 C108.314,71.759 107.54,73.85 107.617,76.483 C98.943,76.948 89.959,77.645 80.975,78.574 L79.659,79.117 L79.659,79.117 L78.962,79.426 L78.574,79.581 C88.41,78.497 98.246,77.723 107.694,77.258 C107.694,77.413 107.772,77.568 107.772,77.723 C108.391,81.44 111.412,85.622 116.601,86.087 C116.678,87.016 116.678,88.023 116.756,89.03 L117.453,88.72 C117.375,87.868 117.375,87.016 117.298,86.087 C117.298,86.087 117.298,86.087 117.298,86.087 C118.924,86.087 121.248,85.545 123.339,83.144 C124.036,83.841 124.733,84.615 125.352,85.312 L126.049,85.003 C125.275,84.151 124.5,83.299 123.803,82.524 C124.965,80.743 125.507,78.884 125.43,76.638 C137.666,76.483 148.819,76.793 158.19,77.645 C162.14,78.032 165.857,78.497 169.11,79.039 C169.11,79.117 169.187,79.194 169.187,79.271 C169.497,80.278 170.814,83.531 172.982,84.073 C173.214,95.923 173.679,115.749 159.584,142.003 C158.577,142.003 157.57,142.468 156.176,143.475 C156.408,138.518 155.634,133.639 154.317,128.837 C150.677,116.136 142.468,104.132 134.801,94.838 C134.646,94.993 134.414,95.148 134.259,95.303 C146.34,110.095 151.607,121.093 153.93,129.38 C155.711,135.653 155.711,140.377 155.789,143.94 C154.317,145.179 153.233,146.573 151.917,148.431 C140.3,146.96 126.746,147.347 120.241,147.502 C120.241,147.425 120.241,147.27 120.163,147.192 C119.854,145.101 118.46,143.862 116.446,143.785 L116.214,143.785 C117.22,133.252 118.227,120.706 117.84,102.351 L117.143,102.66 C117.375,113.658 117.22,127.598 115.671,143.862 C114.587,144.017 113.813,144.482 112.883,145.256 C106.533,137.202 99.33,130.077 91.74,123.339 C91.586,123.649 91.353,123.881 91.198,124.191 C98.788,130.851 105.991,137.899 112.419,145.721 C111.799,146.418 111.489,147.115 111.18,147.967 C98.633,148.741 88.797,149.903 81.672,150.987 C81.672,151.22 81.595,151.374 81.595,151.607 C94.451,149.671 105.216,148.974 111.025,148.586 C110.947,148.819 110.87,149.283 110.87,149.826 C110.87,150.445 110.947,150.91 111.025,151.297 C111.102,151.762 111.257,152.149 111.334,152.304 C111.334,152.304 111.334,152.381 111.257,152.381 C111.334,152.536 111.412,152.691 111.489,152.923 C111.489,152.923 111.567,152.846 111.567,152.846 C111.644,152.923 111.644,153.001 111.722,153.078 C112.341,154.085 113.271,154.705 114.355,154.86 C114.51,154.86 114.742,154.782 114.974,154.782 C115.052,154.782 115.207,154.782 115.284,154.782 C116.523,154.55 117.453,153.853 117.763,153.543 C117.917,153.311 118.15,153.156 118.305,153.001 C119.776,151.297 120.163,149.516 120.241,148.354 L120.241,148.199 C134.026,147.812 141.926,148.044 151.452,149.129 C151.374,149.206 151.297,149.361 151.22,149.516 C149.903,151.762 148.122,155.711 149.671,156.641 C149.826,156.641 149.98,156.718 150.058,156.796 C150.832,156.873 151.762,156.486 153.156,155.634 C153.156,155.711 153.078,155.789 153.078,155.866 C153.233,155.711 153.388,155.634 153.543,155.479 C153.543,155.402 153.62,155.402 153.62,155.324 C155.866,153.698 157.26,151.917 158.267,150.677 C164.54,152.846 164.928,154.705 163.301,157.028 C163.456,156.873 163.611,156.718 163.766,156.563 C166.089,153.543 163.534,151.839 158.654,150.058 C161.21,146.263 161.752,143.088 160.048,142.313 L159.894,142.236 C167.483,127.676 174.376,110.637 173.369,84.306 L173.524,84.306 C174.376,84.228 174.841,83.609 174.996,83.376 C190.175,115.439 177.164,137.047 171.588,146.263 L172.363,145.101 L172.517,144.869 C189.788,117.22 179.643,93.134 175.306,82.911 C175.615,82.214 175.77,81.517 175.925,80.588 C179.255,81.44 181.889,82.447 183.592,83.609 C185.064,84.615 185.838,85.622 185.993,86.706 L185.993,85.545 z M11.506,102.506 C17.856,116.291 27.46,127.831 59.677,149.206 C59.677,149.748 59.755,151.529 61.459,153.853 C61.691,154.163 61.923,154.472 62.001,154.55 C51.546,157.183 46.744,159.042 42.949,161.907 C40.083,159.506 38.07,158.19 37.373,158.422 L37.295,158.422 C16.307,136.814 12.745,117.453 10.654,105.836 C10.654,105.836 10.731,105.758 10.731,105.758 C11.196,105.061 11.428,103.125 11.506,102.506 z M104.364,5.852 C115.362,7.633 121.79,9.957 132.168,14.526 C133.174,15.378 134.568,16.462 135.575,17.159 C135.963,17.469 136.35,17.701 136.737,18.011 C129.689,16.927 119.931,16.462 108.934,16.694 C108.391,15.843 107.617,15.223 106.533,14.681 L106.378,14.603 C109.94,8.175 107.772,6.936 104.364,5.852 z M110.637,69.203 C109.631,68.274 108.701,67.422 107.772,66.648 C101.189,60.762 96.31,56.734 80.356,43.646 C79.968,43.414 79.659,43.181 79.426,42.871 L79.426,42.871 C67.887,33.346 64.711,29.628 61.459,24.052 C62.853,23.123 63.86,22.271 64.944,21.109 C69.436,20.334 74.237,19.715 79.426,19.095 C86.551,18.321 93.677,17.701 100.569,17.391 C100.569,17.391 100.647,17.469 100.647,17.546 C101.111,18.553 101.886,19.173 102.196,19.328 C102.196,19.328 102.196,19.328 102.196,19.328 C102.351,19.405 102.506,19.483 102.66,19.637 C102.738,19.637 102.738,19.715 102.815,19.715 C104.054,20.412 105.216,20.489 105.603,20.567 C107.694,26.763 111.567,37.992 114.742,63.627 C114.897,64.789 115.052,65.951 115.129,67.19 C113.348,67.345 111.954,67.964 110.637,69.203 z M158.035,76.716 C148.741,75.864 137.666,75.554 125.585,75.709 C124.81,70.752 121.17,67.267 116.446,67.035 C116.291,67.035 116.059,67.035 115.904,67.035 C115.749,65.873 115.594,64.557 115.439,63.24 C114.045,52.088 111.722,35.746 106.146,20.489 C107.075,20.489 108.391,20.257 109.089,19.173 C148.741,42.949 162.372,62.466 168.877,71.837 C168.49,73.076 168.413,74.625 168.645,76.329 C168.723,77.103 168.877,77.723 169.032,78.032 C165.78,77.568 162.062,77.103 158.035,76.716 z M171.356,69.9 C170.426,69.668 169.652,70.21 169.11,71.372 C159.119,56.889 145.024,40.548 109.243,18.863 C109.398,18.243 109.398,17.779 109.089,17.082 C120.241,16.849 130.154,17.314 137.279,18.476 C137.357,18.553 137.434,18.631 137.589,18.631 C140.687,20.722 143.243,22.116 144.637,22.503 C144.637,22.503 144.637,22.503 144.637,22.503 C144.791,22.58 144.946,22.58 145.101,22.58 L145.101,22.58 C154.782,31.797 165.702,43.801 171.356,69.9 C171.356,69.9 171.356,69.9 171.356,69.9 z M155.247,149.129 C155.247,149.206 155.169,149.206 155.169,149.283 L155.247,148.819 L155.402,148.819 L155.247,149.129 z" fill="#FFFFFF" opacity="0.42"/>
  </g>
</svg>
