<?xml version="1.0" encoding="UTF-8"?>
<!DOCTYPE svg PUBLIC "-//W3C//DTD SVG 1.1//EN" "http://www.w3.org/Graphics/SVG/1.1/DTD/svg11.dtd">
<svg version="1.1" xmlns="http://www.w3.org/2000/svg" xmlns:xlink="http://www.w3.org/1999/xlink" x="0" y="0" width="192" height="192" viewBox="0, 0, 192, 192">
  <g id="Layer_1">
    <path d="M100.677,53.053 C92.578,53.067 84.819,56.317 79.126,62.077 C73.433,67.838 70.276,75.635 70.357,83.733 C70.351,84.473 70.745,85.159 71.388,85.526 C72.03,85.894 72.821,85.886 73.456,85.506 C74.09,85.125 74.47,84.432 74.449,83.692 C74.379,76.683 77.109,69.94 82.036,64.954 C86.963,59.969 93.675,57.157 100.684,57.145 C101.425,57.158 102.115,56.77 102.488,56.13 C102.861,55.49 102.86,54.699 102.484,54.06 C102.108,53.422 101.417,53.036 100.676,53.052 z M111.126,0 C111.045,-0 110.964,0.002 110.883,0.008 C61.093,1.885 20.867,41.426 18.137,91.176 C18.049,92.438 18.647,93.649 19.703,94.346 C20.758,95.043 22.108,95.117 23.233,94.54 C24.359,93.963 25.086,92.824 25.136,91.56 C27.671,45.364 64.913,8.755 111.146,7.012 C113.051,6.964 114.569,5.404 114.564,3.498 C114.559,1.592 113.032,0.04 111.127,0.003 z M139.9,71.724 C127.571,71.644 115.766,74.803 105.041,83.9 C96.967,90.748 91.63,106.493 91.638,115.978 L91.638,192 L98.965,192 L98.965,141.978 L115.705,141.978 C141.652,141.978 163.536,127.433 171.984,103.698 C175.15,94.804 173.377,77.646 173.377,77.646 C162.065,74.386 150.778,71.794 139.9,71.724 z M138.15,78.261 C147.953,78.236 158.025,80.661 167.392,82.744 C167.392,82.744 167.552,96.783 164.63,103.698 C156.309,123.392 137.513,134.463 115.705,134.463 L99.096,134.463 L99.088,133.767 C99.741,131.634 100.588,129.002 101.668,126.088 C104.11,119.501 107.685,111.951 111.18,108.55 C113.881,105.921 117.701,103.343 122.09,100.965 C122.933,100.518 123.356,99.546 123.107,98.624 C122.859,97.702 122.006,97.075 121.052,97.112 C120.732,97.125 120.42,97.212 120.14,97.368 C115.543,99.859 111.435,102.584 108.318,105.618 C104.423,109.409 101.378,115.653 98.999,121.633 L98.962,116.51 C98.886,106.547 103.316,95.182 110.521,88.476 C118.81,80.76 128.344,78.286 138.147,78.261 z" fill="#FFFFFF" id="path4795-9-1-9-4-0-1-7-3-9-0-2"/>
  </g>
</svg>
