<?xml version="1.0" encoding="UTF-8"?>
<!DOCTYPE svg PUBLIC "-//W3C//DTD SVG 1.1//EN" "http://www.w3.org/Graphics/SVG/1.1/DTD/svg11.dtd">
<svg version="1.1" xmlns="http://www.w3.org/2000/svg" xmlns:xlink="http://www.w3.org/1999/xlink" x="0" y="0" width="100" height="25" viewBox="0, 0, 200, 50">
  <g id="Layer_1">
    <g>
      <path d="M24.513,41.467 C15.787,41.467 8.713,34.393 8.713,25.667 C8.713,16.94 15.787,9.866 24.513,9.866 C33.239,9.866 40.313,16.94 40.313,25.667 C40.313,34.393 33.239,41.467 24.513,41.467 z" fill="#489544"/>
      <path d="M24.513,41.467 C15.787,41.467 8.713,34.393 8.713,25.667 C8.713,16.94 15.787,9.866 24.513,9.866 C33.239,9.866 40.313,16.94 40.313,25.667 C40.313,34.393 33.239,41.467 24.513,41.467 z" fill-opacity="0" stroke="#000000" stroke-width="0.5"/>
    </g>
    <text transform="matrix(1, 0, 0, 1, 174.413, 25.167)">
      <tspan x="-21.392" y="9.5" font-family="ArialMT" font-size="30" fill="#555555">5s</tspan>
    </text>
    <text transform="matrix(1, 0, 0, 1, 379.357, 215.26)">
      <tspan x="-49" y="10.5" font-family="LucidaGrande" font-size="30" fill="#000000">daß∂a</tspan>
    </text>
    <path d="M115.429,17.286 L115.429,32.714 L82,32.714 L82,17.286 z M118,28.857 L120.571,28.857 L120.571,21.143 L118,21.143 L118,15.357 Q118,15.076 117.819,14.895 Q117.638,14.714 117.357,14.714 L80.071,14.714 Q79.79,14.714 79.609,14.895 Q79.429,15.076 79.429,15.357 L79.429,34.643 Q79.429,34.924 79.609,35.105 Q79.79,35.286 80.071,35.286 L117.357,35.286 Q117.638,35.286 117.819,35.105 Q118,34.924 118,34.643 z M123.143,21.143 L123.143,28.857 Q123.143,29.922 122.39,30.675 Q121.636,31.429 120.571,31.429 L120.571,34.643 Q120.571,35.969 119.627,36.913 Q118.683,37.857 117.357,37.857 L80.071,37.857 Q78.746,37.857 77.801,36.913 Q76.857,35.969 76.857,34.643 L76.857,15.357 Q76.857,14.031 77.801,13.087 Q78.746,12.143 80.071,12.143 L117.357,12.143 Q118.683,12.143 119.627,13.087 Q120.571,14.031 120.571,15.357 L120.571,18.571 Q121.636,18.571 122.39,19.325 Q123.143,20.078 123.143,21.143 z" fill="#555555"/>
    <path d="M335.5,142.929 L335.5,127.5 L361.214,127.5 L361.214,142.929 z M374.071,128.786 Q375.136,128.786 375.89,129.539 Q376.643,130.292 376.643,131.357 L376.643,139.071 Q376.643,140.136 375.89,140.89 Q375.136,141.643 374.071,141.643 L374.071,144.857 Q374.071,146.183 373.127,147.127 Q372.183,148.071 370.857,148.071 L333.571,148.071 Q332.246,148.071 331.301,147.127 Q330.357,146.183 330.357,144.857 L330.357,125.571 Q330.357,124.246 331.301,123.301 Q332.246,122.357 333.571,122.357 L370.857,122.357 Q372.183,122.357 373.127,123.301 Q374.071,124.246 374.071,125.571 z M374.071,139.071 L374.071,131.357 L371.5,131.357 L371.5,125.571 Q371.5,125.29 371.319,125.109 Q371.138,124.929 370.857,124.929 L333.571,124.929 Q333.29,124.929 333.109,125.109 Q332.929,125.29 332.929,125.571 L332.929,144.857 Q332.929,145.138 333.109,145.319 Q333.29,145.5 333.571,145.5 L370.857,145.5 Q371.138,145.5 371.319,145.319 Q371.5,145.138 371.5,144.857 L371.5,139.071 z" fill="#555555"/>
    <path d="M499.357,167.929 L499.357,152.5 L509.643,152.5 L509.643,167.929 z M537.929,153.786 Q538.993,153.786 539.747,154.539 Q540.5,155.292 540.5,156.357 L540.5,164.071 Q540.5,165.136 539.747,165.89 Q538.993,166.643 537.929,166.643 L537.929,169.857 Q537.929,171.183 536.984,172.127 Q536.04,173.071 534.714,173.071 L497.429,173.071 Q496.103,173.071 495.158,172.127 Q494.214,171.183 494.214,169.857 L494.214,150.571 Q494.214,149.246 495.158,148.301 Q496.103,147.357 497.429,147.357 L534.714,147.357 Q536.04,147.357 536.984,148.301 Q537.929,149.246 537.929,150.571 z M537.929,164.071 L537.929,156.357 L535.357,156.357 L535.357,150.571 Q535.357,150.29 535.176,150.109 Q534.996,149.929 534.714,149.929 L497.429,149.929 Q497.147,149.929 496.967,150.109 Q496.786,150.29 496.786,150.571 L496.786,169.857 Q496.786,170.138 496.967,170.319 Q497.147,170.5 497.429,170.5 L534.714,170.5 Q534.996,170.5 535.176,170.319 Q535.357,170.138 535.357,169.857 L535.357,164.071 z" fill="#555555"/>
  </g>
  <g id="Layer_2" display="none">
    <g>
      <path d="M24.513,41.467 C15.787,41.467 8.713,34.393 8.713,25.667 C8.713,16.94 15.787,9.866 24.513,9.866 C33.239,9.866 40.313,16.94 40.313,25.667 C40.313,34.393 33.239,41.467 24.513,41.467 z" fill="#D2762E"/>
      <path d="M24.513,41.467 C15.787,41.467 8.713,34.393 8.713,25.667 C8.713,16.94 15.787,9.866 24.513,9.866 C33.239,9.866 40.313,16.94 40.313,25.667 C40.313,34.393 33.239,41.467 24.513,41.467 z" fill-opacity="0" stroke="#000000" stroke-width="0.5"/>
    </g>
    <text transform="matrix(1, 0, 0, 1, 174.413, 25.167)">
      <tspan x="-21.392" y="9.5" font-family="ArialMT" font-size="30" fill="#555555">5s</tspan>
    </text>
    <path d="M82,32.714 L82,17.286 L100,17.286 L100,32.714 z M120.571,18.571 Q121.636,18.571 122.39,19.325 Q123.143,20.078 123.143,21.143 L123.143,28.857 Q123.143,29.922 122.39,30.675 Q121.636,31.429 120.571,31.429 L120.571,34.643 Q120.571,35.969 119.627,36.913 Q118.683,37.857 117.357,37.857 L80.071,37.857 Q78.746,37.857 77.801,36.913 Q76.857,35.969 76.857,34.643 L76.857,15.357 Q76.857,14.031 77.801,13.087 Q78.746,12.143 80.071,12.143 L117.357,12.143 Q118.683,12.143 119.627,13.087 Q120.571,14.031 120.571,15.357 z M120.571,28.857 L120.571,21.143 L118,21.143 L118,15.357 Q118,15.076 117.819,14.895 Q117.638,14.714 117.357,14.714 L80.071,14.714 Q79.79,14.714 79.609,14.895 Q79.429,15.076 79.429,15.357 L79.429,34.643 Q79.429,34.924 79.609,35.105 Q79.79,35.286 80.071,35.286 L117.357,35.286 Q117.638,35.286 117.819,35.105 Q118,34.924 118,34.643 L118,28.857 z" fill="#555555"/>
  </g>
  <g id="Layer_3" display="none">
    <g>
      <path d="M24.513,41.467 C15.787,41.467 8.713,34.393 8.713,25.667 C8.713,16.94 15.787,9.866 24.513,9.866 C33.239,9.866 40.313,16.94 40.313,25.667 C40.313,34.393 33.239,41.467 24.513,41.467 z" fill="#37A4DA"/>
      <path d="M24.513,41.467 C15.787,41.467 8.713,34.393 8.713,25.667 C8.713,16.94 15.787,9.866 24.513,9.866 C33.239,9.866 40.313,16.94 40.313,25.667 C40.313,34.393 33.239,41.467 24.513,41.467 z" fill-opacity="0" stroke="#000000" stroke-width="0.5"/>
    </g>
    <path d="M112.857,9.571 Q112.857,14.815 110.718,18.843 Q108.578,22.871 105.364,25 Q108.578,27.129 110.718,31.157 Q112.857,35.185 112.857,40.429 L114.786,40.429 Q115.067,40.429 115.248,40.609 Q115.429,40.79 115.429,41.071 L115.429,42.357 Q115.429,42.638 115.248,42.819 Q115.067,43 114.786,43 L85.214,43 Q84.933,43 84.752,42.819 Q84.571,42.638 84.571,42.357 L84.571,41.071 Q84.571,40.79 84.752,40.609 Q84.933,40.429 85.214,40.429 L87.143,40.429 Q87.143,35.185 89.282,31.157 Q91.422,27.129 94.636,25 Q91.422,22.871 89.282,18.843 Q87.143,14.815 87.143,9.571 L85.214,9.571 Q84.933,9.571 84.752,9.391 Q84.571,9.21 84.571,8.929 L84.571,7.643 Q84.571,7.362 84.752,7.181 Q84.933,7 85.214,7 L114.786,7 Q115.067,7 115.248,7.181 Q115.429,7.362 115.429,7.643 L115.429,8.929 Q115.429,9.21 115.248,9.391 Q115.067,9.571 114.786,9.571 z M110.286,9.571 L89.714,9.571 Q89.714,13.71 91.422,17.286 L108.578,17.286 Q110.286,13.71 110.286,9.571 z M109.141,34 Q108.056,31.167 106.218,29.148 Q104.379,27.129 102.31,26.286 L97.69,26.286 Q95.621,27.129 93.782,29.148 Q91.944,31.167 90.859,34 z" fill="#555555"/>
  </g>
  <g id="Layer_4" display="none">
    <g>
      <path d="M24.513,41.467 C15.787,41.467 8.713,34.393 8.713,25.667 C8.713,16.94 15.787,9.866 24.513,9.866 C33.239,9.866 40.313,16.94 40.313,25.667 C40.313,34.393 33.239,41.467 24.513,41.467 z" fill="#C72A30"/>
      <path d="M24.513,41.467 C15.787,41.467 8.713,34.393 8.713,25.667 C8.713,16.94 15.787,9.866 24.513,9.866 C33.239,9.866 40.313,16.94 40.313,25.667 C40.313,34.393 33.239,41.467 24.513,41.467 z" fill-opacity="0" stroke="#000000" stroke-width="0.5"/>
    </g>
    <path d="M97.449,35.908 L97.449,32.092 Q97.449,31.81 97.258,31.619 Q97.067,31.429 96.806,31.429 L92.949,31.429 Q92.688,31.429 92.497,31.619 Q92.306,31.81 92.306,32.092 L92.306,35.908 Q92.306,36.19 92.497,36.381 Q92.688,36.571 92.949,36.571 L96.806,36.571 Q97.067,36.571 97.258,36.381 Q97.449,36.19 97.449,35.908 z M97.409,28.395 L97.77,19.174 Q97.77,18.933 97.569,18.792 Q97.308,18.571 97.087,18.571 L92.668,18.571 Q92.447,18.571 92.186,18.792 Q91.985,18.933 91.985,19.214 L92.326,28.395 Q92.326,28.596 92.527,28.727 Q92.728,28.857 93.009,28.857 L96.726,28.857 Q97.007,28.857 97.198,28.727 Q97.389,28.596 97.409,28.395 z M97.128,9.632 L112.556,37.917 Q113.259,39.183 112.516,40.449 Q112.174,41.031 111.582,41.373 Q110.989,41.714 110.306,41.714 L79.449,41.714 Q78.766,41.714 78.173,41.373 Q77.581,41.031 77.239,40.449 Q76.496,39.183 77.199,37.917 L92.628,9.632 Q92.969,9.009 93.572,8.647 Q94.174,8.286 94.878,8.286 Q95.581,8.286 96.183,8.647 Q96.786,9.009 97.128,9.632 z" fill="#555555"/>
  </g>
  <g id="Layer_5" display="none">
    <g>
      <path d="M24.513,41.3 C15.787,41.3 8.713,34.226 8.713,25.5 C8.713,16.774 15.787,9.7 24.513,9.7 C33.239,9.7 40.313,16.774 40.313,25.5 C40.313,34.226 33.239,41.3 24.513,41.3 z" fill="#D2762E"/>
      <path d="M24.513,41.3 C15.787,41.3 8.713,34.226 8.713,25.5 C8.713,16.774 15.787,9.7 24.513,9.7 C33.239,9.7 40.313,16.774 40.313,25.5 C40.313,34.226 33.239,41.3 24.513,41.3 z" fill-opacity="0" stroke="#000000" stroke-width="0.5"/>
    </g>
    <text transform="matrix(1, 0, 0, 1, 164.559, 26.317)">
      <tspan x="-29.059" y="8.35" font-family="ArialMT" font-size="30" fill="#555555">&lt;1s</tspan>
    </text>
  </g>
</svg>
