<?xml version="1.0" encoding="UTF-8"?>
<!DOCTYPE svg PUBLIC "-//W3C//DTD SVG 1.1//EN" "http://www.w3.org/Graphics/SVG/1.1/DTD/svg11.dtd">
<svg version="1.1" xmlns="http://www.w3.org/2000/svg" xmlns:xlink="http://www.w3.org/1999/xlink" x="0" y="0" width="419.2" height="98.4" viewBox="0, 0, 1048, 246">
  <defs>
    <linearGradient id="Gradient_1" gradientUnits="userSpaceOnUse" x1="6.298" y1="123.448" x2="241.298" y2="123.448">
      <stop offset="0" stop-color="#C3DF5E"/>
      <stop offset="0.349" stop-color="#8ACC5E"/>
      <stop offset="1" stop-color="#3498AB"/>
    </linearGradient>
  </defs>
  <g id="Layer_1">
    <g>
      <path d="M241.3,123.4 C241.3,188.293 188.693,240.9 123.8,240.9 C58.907,240.9 6.3,188.293 6.3,123.4 C6.3,58.507 58.907,5.9 123.8,5.9 C188.693,5.9 241.3,58.507 241.3,123.4 z" fill="url(#Gradient_1)"/>
      <g opacity="0.14">
        <g>
          <path d="M56.5,46.3 C56.6,46.2 56.7,46.1 56.8,46 C55.6,45.7 54.5,45.5 53.5,45.2 C51.7,47.2 50,49.4 48.4,51.5 C50.9,51.8 55.2,47.6 56.5,46.3 M58.9,43.7 C61.3,40.9 65.4,35.5 63.8,34.6 C60.4,37.7 57.2,40.9 54.1,44.4 C55.1,44.7 56.3,45 57.5,45.2 C57.8,45 58.3,44.5 58.9,43.7 M48.1,51.4 C52.8,45.3 58,39.6 63.7,34.6 L63.4,34.6 C57.5,35.5 45.2,48.7 47.9,51.3 C47.9,51.3 48,51.4 48.1,51.4" fill="#FFFFFF"/>
          <path d="M93.9,55.2 C94.4,53 94.9,50.8 95.5,48.7 L90.7,53.5 C91.5,54.7 92.5,55.2 93.9,55.2 M90.4,53 L94.8,48.6 C93.3,48.6 91.8,48.6 90.3,48.6 C89.9,50.4 89.9,51.7 90.4,53 M100.8,48.8 C100.8,48.7 100.9,48.6 100.9,48.5 C99.3,48.5 97.7,48.6 96.1,48.6 C95.6,50.7 95.1,52.9 94.6,55.2 C97.9,54.6 100.1,51.6 100.8,48.8 M90.6,47.9 C92.1,47.9 93.6,47.9 95.1,47.9 L93.5,43.6 L93.3,43.8 C92,45 91.2,46.3 90.6,47.9 M96.3,47.8 C97.9,47.8 99.4,47.7 101,47.7 C101.4,44.4 100.2,42 98,41.6 C97.4,43.7 96.9,45.7 96.3,47.8 M95.8,47.7 C96.3,45.6 96.9,43.6 97.5,41.7 L97.3,41.7 C96.2,41.8 95.2,42.2 94.1,43.1 C94.6,44.5 95.3,46.3 95.8,47.7" fill="#FFFFFF"/>
          <path d="M151.6,48.4 L152.7,43.8 C151,44.1 149.2,44.3 147.4,44.6 C148.6,46.2 149.9,47.4 151.6,48.4 M157.4,49.7 L154.1,43.5 C153.9,43.5 153.7,43.6 153.5,43.6 L152.4,48.7 C154.2,49.7 155.7,50 157.4,49.7 M160.4,42.8 C160.4,42.7 160.3,42.6 160.3,42.5 C158.5,42.8 156.6,43.2 154.7,43.5 L158.1,49.7 C161.3,48.6 161.3,45.3 160.4,42.8 M153.6,42.8 C153.6,42.8 153.6,42.8 153.6,42.8 L153.6,42.8 C153.6,42.9 153.6,42.9 153.6,42.8 M159,40.2 C157.7,38.3 156,36.7 153.9,35.3 C153.9,37.3 153.9,40 153.7,41.9 L154.2,42.7 C156.2,42.4 158.1,42 159.9,41.7 C159.7,41.5 159.5,40.9 159,40.2 M153,41.7 L152.5,40.9 C150.2,39.4 147.2,37.4 144.9,35.9 L144.8,36.2 C144.4,39.2 145.7,42 146.9,43.8 C148.9,43.5 150.9,43.2 152.8,42.9 L153,41.7 M153.1,40.9 C153.2,39.1 153.3,36.7 153.3,34.9 C151.3,33.7 149.6,33.2 148.1,33.3 C149.7,35.6 151.4,38.1 152.9,40.6 C152.9,40.6 153,40.7 153,40.7 L153.1,40.9 M151.9,39.9 C150.5,37.6 149,35.4 147.6,33.3 L147.4,33.3 C146.2,33.6 145.6,34.2 145.1,35.4 C147.1,36.8 149.8,38.6 151.9,39.9" fill="#FFFFFF"/>
          <path d="M191.8,37.5 L188.9,33.7 C188.5,34 188,34.2 187.5,34.5 C189.1,35.7 190.4,36.6 191.8,37.5 M195.6,38.7 C193.5,36.8 191.4,35.1 189.3,33.4 C189.3,33.4 189.2,33.5 189.2,33.5 L192.5,37.9 C194.1,38.7 195.1,39 195.6,38.7 M190.9,32.6 C190.8,32.5 190.7,32.4 190.6,32.4 C190.3,32.7 189.9,33 189.4,33.3 C191.6,35 193.7,36.8 195.7,38.6 C196.1,37.6 194.1,35.1 190.9,32.6 M188.7,32.7 C189.1,32.4 189.5,32.1 189.8,31.8 C188.5,30.9 186.7,29.7 184.5,28.6 C185.6,29.7 187,31.1 188,32.2 C188.3,32.4 188.5,32.5 188.7,32.7 M186.9,31.4 L183.9,28.4 C183,28 182.4,27.9 182,28 C183.7,29 185.3,30.2 186.9,31.4 M187.6,32.1 C185.7,30.7 183.8,29.3 181.8,28 L181.7,28.1 C181.2,28.9 184,31.6 186.7,33.9 C187.3,33.6 187.8,33.3 188.2,33 L187.6,32.1" fill="#FFFFFF"/>
          <path d="M47.8,37.7 L41.9,43.7 L47.4,38.1 C47.5,37.9 47.6,37.8 47.8,37.7 M46.4,39.3 C48.9,36.9 51.6,34.6 54.1,32.2 C50.2,35.5 45.2,40.2 41.6,43.8 C43.4,42.5 44.8,40.8 46.4,39.3 M48.5,37 C48.3,37.1 48.2,37.3 48.1,37.4 L54.2,32.1 L54.2,32.1 C54.1,32.1 54.1,32.1 52.7,33.3 L48.5,37" fill="#FFFFFF"/>
          <path d="M25.7,136.4 C25.7,136.3 25.7,136.2 25.7,136.1 C24.4,135.8 23.1,135.5 22,135.1 C22.1,136.6 22.1,138 22.2,139.5 C22.2,140.1 22.3,140.7 22.3,141.3 C24.8,141.5 25.6,137.6 25.7,136.4 M26,133.3 C26,130.6 25.5,128.6 25.3,127.9 C24.4,129.8 23.2,132.2 22.4,134.1 C23.5,134.4 24.7,134.7 26,135 C25.9,134.7 26,134.1 26,133.3 M22,133.3 C22.9,131.4 24,128.9 25,127 C24,124 22.9,123.2 22.2,122.8 C22,126.3 21.9,129.8 22,133.3 M21.6,134.2 C21.5,130.3 21.5,126.5 21.7,122.6 L21.3,122.6 C16.2,123.5 17.7,138.4 21.6,140.9 C21.7,141 21.9,141 22,141.1 C21.9,140.5 21.9,139.9 21.9,139.3 C21.8,137.8 21.7,136.4 21.7,134.9 C21.6,134.9 21.5,134.8 21.4,134.8 L21.6,134.2" fill="#FFFFFF"/>
          <path d="M65.2,219.1 C65.1,219 65.1,218.9 65,218.9 C64,218.6 62.5,218.3 61.5,218 C63.4,219.6 65.4,221.1 67.5,222.5 C67.8,222.6 68.3,222.7 67.8,221.8 C67.2,221.2 66.1,220 65.2,219.1 M63.1,217.1 C60.5,214.8 58.6,213.2 57.9,212.7 C58.8,214.2 59.9,216.1 60.9,217.5 C61.9,217.8 63.3,218.1 64.4,218.3 C64.1,218.1 63.7,217.7 63.1,217.1 M60.2,217 C59.2,215.6 57.9,213.7 57.1,212.1 C54.5,210.1 52.7,209 51.3,208.5 C54.1,211.6 57.1,214.4 60.2,217 M60.6,217.5 C57.2,214.7 54,211.7 51,208.4 L50.7,208.4 C48.9,208.6 53.2,213.1 58.2,216.9 C60.8,218.9 64.7,221.6 67.1,222.5 C65,221.1 63,219.5 61.1,217.9 L60.9,217.8 L60.6,217.5" fill="#FFFFFF"/>
          <path d="M106.6,221.9 C106.6,221.8 106.6,221.8 106.6,221.9 L104.8,225 C106.3,225.7 107.5,226 108.9,226 C108.2,224.7 107.4,223.3 106.6,221.9 M104.2,224.6 L106,221.4 L100.8,221.4 C101.3,222.3 102.2,223.5 104.2,224.6 M112.3,221.6 C112.3,221.5 112.2,221.4 112.2,221.3 C110.7,221.3 108.6,221.4 107.1,221.5 C107.9,223.1 108.7,224.6 109.6,226 C112.4,225.6 113,223.4 112.3,221.6 M107.2,220.9 L111.9,220.8 C111.2,219.7 110.4,218.8 109.1,218 C108.5,218.8 107.8,220 107.2,220.9 M106.6,220.5 L108.5,217.6 C107.2,216.9 106.1,216.6 104.7,216.4 C105.3,217.8 105.9,219.2 106.6,220.5 M106.1,220.9 C105.4,219.5 104.6,217.9 103.9,216.4 L103.6,216.4 C100.6,216.6 99.3,218.5 100.4,221 C102.2,221 104.4,220.9 106.1,220.9" fill="#FFFFFF"/>
          <path d="M89.2,152.8 C88.9,150.2 88.7,147.5 88.5,144.9 C88.4,143.7 88.3,142.5 88.3,141.3 C86.3,143.9 83.7,147.3 81.8,149.9 C84.1,151.9 86.3,152.8 89.2,152.8 M99.5,141.3 C99.5,141.1 99.5,140.9 99.5,140.7 C96,140.8 92.5,140.9 89.1,140.9 C89.2,142.2 89.3,143.5 89.4,144.8 C89.6,147.5 89.8,150.1 90.1,152.7 C96.5,151.9 99.5,146.2 99.5,141.3 M87.2,141 L87.6,140.5 C84.1,140.5 80.7,140.5 77.4,140.5 L77.5,141.1 C77.9,144.3 79,146.8 81.2,149.2 C82.9,146.7 85.3,143.5 87.2,141 C87.2,141 87.2,141 87.2,141 M89.3,140 C92.6,140 96,139.9 99.5,139.8 C99.1,136.6 98,134.1 95.8,131.7 C94,134 91.5,137.1 89.7,139.5 C89.7,139.5 89.7,139.5 89.7,139.5 L89.3,140 M89,138.6 C90.8,136.3 93.2,133.2 95,131 C93,129.3 91,128.4 88.5,128.2 C88.7,131.6 88.8,135.1 89,138.6 M88.1,139.4 C87.9,135.6 87.7,131.8 87.6,128.1 L87.1,128.1 C81.5,128.6 77.5,133.2 77.3,139.4 C80.8,139.5 84.5,139.5 88.1,139.4" fill="#FFFFFF"/>
          <path d="M175.7,137.6 L178.5,133.4 C176.7,133.7 174.8,134 172.9,134.3 C173.6,135.7 174.4,136.7 175.7,137.6 M180.6,138.7 L180.2,133 C180,133 179.9,133.1 179.7,133.1 L176.5,138 C177.9,138.7 179.1,138.9 180.6,138.7 M187.3,132.1 C187.3,132 187.4,131.9 187.4,131.8 C185.3,132.2 183.2,132.6 181,132.9 L181.4,138.5 C185.5,137.3 186.9,133.6 187.3,132.1 M187.7,128.4 C187.5,125.4 186.1,123.6 185.7,123.1 C184.3,125.5 182.4,128.8 180.9,131.2 L181,131.9 C183.3,131.5 185.5,131.1 187.7,130.7 C187.7,130.3 187.8,129.5 187.7,128.4 M180.7,129.7 L185,122.4 C183.4,120.8 181.7,120.1 179.5,120.2 C179.9,123 180.4,126.8 180.7,129.7 M180,130.9 C179.6,127.7 179.2,123.4 178.7,120.3 L178.3,120.4 C173.2,121.8 170.5,127.8 172.4,133.3 C174.7,133 177,132.6 179.2,132.2 L180,130.9" fill="#FFFFFF"/>
          <path d="M163,220 C164.7,218.7 167,217 168.6,215.6 C166.7,215.9 164.2,216.3 162.3,216.6 C162.1,218.1 162.3,219.1 163,220 M166.7,221 C167.6,219.3 168.9,217.1 169.7,215.4 L169.5,215.4 C167.6,216.8 165.2,218.8 163.3,220.2 C164.1,221 165.1,221.2 166.7,221 M176.6,214.4 C176.7,214.3 176.8,214.2 176.8,214.1 C174.8,214.5 172.2,215 170.2,215.3 C169.3,217 168.1,219.2 167.2,220.9 C171,220 174.7,217 176.6,214.4 M177.5,213 C179.1,210.2 178.4,208.7 178.2,208.2 C175.9,210.1 172.9,212.7 170.6,214.5 L170.5,214.7 C172.5,214.3 175.2,213.8 177.2,213.4 C177.3,213.3 177.4,213.2 177.5,213 M171.1,213.6 C173.2,211.9 176,209.5 178.1,207.8 C177.3,206.7 176,206.3 174.1,206.5 C173.1,208.6 172,211.5 171.1,213.6 M170.1,214.4 C171.1,212.1 172.4,209 173.3,206.6 L172.9,206.7 C168.1,207.9 163.6,211.9 162.5,216.1 C164.6,215.8 167.4,215.3 169.5,215 L170.1,214.4" fill="#FFFFFF"/>
          <path d="M201.7,210.9 C203.8,209 205.8,206.9 207.7,204.9 C206,206.4 203.9,208.6 202.2,210.1 C201.5,211 201.5,211 201.5,211.1 C201.5,211 201.6,211 201.7,210.9 M208.6,203.9 C208.7,203.8 208.7,203.8 208.8,203.7 L206.9,204.9 C206.4,205.4 204,208.1 202.6,209.7 C204.4,207.9 206.9,205.7 208.6,203.9 M208.7,204.2 C209.5,203.4 210.1,202.7 210.3,202.5 C209.9,202.8 209.5,203.2 209.1,203.5 L208.5,204.1 C206.4,206.5 204.1,208.7 201.8,210.9 C203.1,209.8 206,207.1 208.7,204.2 M209.9,202.6 L210.9,201.8 C211.7,200.9 212.3,200.2 212.7,199.5 C211.8,200.5 210.7,201.7 209.9,202.6 M209.6,202.8 L212.9,199.2 C213,199 213.4,198.5 213.1,198.6 C213.1,198.6 213.1,198.6 213.1,198.6 C212,200 210.8,201.5 209.6,202.8 L209.6,202.8 M209.4,203 C210.6,201.6 211.8,200.2 213,198.7 L212.9,198.8 C212.1,199.4 210.4,201.1 207.5,204.2 C208.1,203.8 208.9,203.4 209.4,203" fill="#FFFFFF"/>
          <path d="M233.5,126.1 C234,123.5 234.7,120.1 235.1,117.5 C234.2,118.1 233.2,118.7 232,119.2 C232.3,122.1 232.8,124.2 233.5,126.1 M236.4,128.9 C236.4,126.3 236.3,123.6 236.1,120.9 C236,119.6 235.9,118.3 235.8,117 C235.7,117.1 235.6,117.1 235.5,117.2 C235,120.1 234.4,123.9 233.8,126.7 C234.7,128.8 235.5,129.5 236.4,128.9 M238.5,115.5 C238.5,115.3 238.5,115.1 238.4,114.9 C237.8,115.6 237,116.2 236,116.9 C236.1,118.2 236.3,119.5 236.3,120.8 C236.5,123.5 236.6,126.1 236.6,128.8 C238.5,126.6 238.9,120.4 238.5,115.5 M235.6,116 C235.6,115.9 235.6,115.9 235.6,115.8 L235.6,116 C235.6,116.1 235.6,116.1 235.6,116 M235.9,115.9 C236.9,115.2 237.7,114.6 238.3,113.9 C237.8,110.4 237.2,107.9 236.2,106 C236.1,108.6 236,112 235.8,114.6 C235.8,115 235.9,115.4 235.9,115.9 M235.6,113.1 L236,105.5 C235.3,104.5 234.8,104.1 234.1,104.3 C234.6,107.2 235.1,110.1 235.6,113.1 M235.4,114.4 C235,111 234.4,107.7 233.7,104.5 L233.5,104.6 C231.9,106.2 231.2,111.7 231.8,118.3 C233.1,117.7 234.2,117 235.2,116.4 L235.4,114.4" fill="#FFFFFF"/>
          <path d="M67.4,222.6 C65.3,221.2 63.3,219.6 61.4,218.1 L61.1,218 C63.1,219.6 65.1,221.1 67.1,222.6 C75.3,228.3 84.2,232.7 93.8,235.6 L94.6,235.8 C84.8,232.9 75.7,228.4 67.4,222.6 M163.3,220.3 C165.2,218.9 167.7,217 169.5,215.5 L168.6,215.6 C166.9,216.9 164.7,218.7 163,220 C142.7,235 132.2,240.3 132.1,240.4 L132.3,240.4 C134.2,239.6 149.1,231 163.3,220.3 M208.5,204 L209.1,203.4 L208.8,203.6 C208.7,203.7 208.7,203.7 208.6,203.8 C206.8,205.5 204.4,207.9 202.5,209.6 C189.2,220.7 176.4,229.5 156.8,236 L157.3,235.8 C172.1,230.6 185.4,224.3 202.1,209.9 C203.8,208.4 206,206.3 207.6,204.7 C205.7,206.8 203.7,208.8 201.6,210.7 C198,214 194.1,217.1 190.1,219.9 L191.4,219 C195,216.4 198.5,213.6 201.8,210.6 C204.2,208.6 206.4,206.4 208.5,204 M169.9,214.8 L170.1,214.3 L169.4,214.8 L169.9,214.8 M176.5,138.1 L179.7,133.2 C179.3,133.3 178.9,133.3 178.5,133.4 L175.7,137.6 C155.7,166.3 128.5,188.9 108.5,217.6 L106.6,220.5 C106,219.2 105.3,217.8 104.7,216.4 C97.9,201 92.7,178.9 90.1,152.7 C89.8,150.1 89.6,147.5 89.4,144.8 C89.3,143.5 89.2,142.2 89.1,140.9 C88.9,140.9 88.6,140.9 88.4,140.9 L88.2,141.2 C88.3,142.4 88.4,143.6 88.4,144.8 C88.6,147.5 88.8,150.1 89.1,152.7 C91.7,178.9 97,200.9 103.9,216.3 C104.6,217.9 105.3,219.4 106.1,220.8 L106.1,220.8 L107.2,220.8 L109.1,217.8 C129.8,189.8 157.1,167.3 176.5,138.1 M233.7,126.8 C234.2,124 235,120.2 235.4,117.3 C235.3,117.4 235.1,117.5 235,117.6 C234.5,120.2 234,123.6 233.4,126.2 C229.8,139.3 221.4,170 177.9,207.9 C175.8,209.7 173.1,212 170.9,213.7 L170.5,214.6 C172.8,212.7 175.8,210.2 178.1,208.3 C209.5,180.3 228.2,152.9 233.7,126.8 M236.7,128.7 C236.7,126.1 236.6,123.4 236.4,120.7 C236.3,119.4 236.2,118.1 236.1,116.8 C236,116.9 235.9,116.9 235.8,117 C235.9,118.3 236.1,119.6 236.1,120.9 C236.3,123.6 236.4,126.3 236.4,128.9 C236.6,155.4 227.9,179.7 212.9,198.7 C211.7,200.2 210.6,201.6 209.3,203 L209.5,202.9 C210.7,201.5 211.9,200.1 213,198.7 C228.1,179.6 236.9,155.3 236.7,128.7 M222.6,186.4 L222.8,186.1 C217.3,194.1 217.1,194.5 213,199.2 L209.7,202.8 L210,202.6 L212.8,199.6 C215.6,196.2 219.2,191.5 221.7,187.9 L222.6,186.4 M22.5,141.3 C22.4,140.7 22.4,140.1 22.4,139.5 C22.3,138 22.2,136.6 22.2,135.1 C22.1,135.1 21.9,135 21.8,135 C21.9,136.5 21.9,137.9 22,139.4 C22,140 22.1,140.6 22.1,141.2 C24.5,168 35.1,191.3 51.1,208.5 C54.1,211.8 57.3,214.8 60.7,217.6 L60.3,217.1 C57.2,214.5 54.2,211.6 51.4,208.6 C35.4,191.4 24.8,168.1 22.5,141.3 M180.1,132 L180,130.9 L179.2,132.2 C179.5,132.1 179.8,132.1 180.1,132 M94.6,55.2 C95.1,53 95.6,50.8 96.1,48.6 C95.9,48.6 95.8,48.6 95.6,48.6 L95.4,48.8 C94.9,50.9 94.3,53.1 93.8,55.3 C89.2,76.1 86.8,101.6 87.5,128.2 C87.6,132 87.8,135.7 88,139.5 C88.1,139.5 88.2,139.5 88.2,139.5 L88.8,138.7 C88.6,135.2 88.5,131.7 88.4,128.2 C87.9,101.5 90.1,76 94.6,55.2 M192.5,37.9 L189.2,33.5 C189.1,33.6 189,33.6 189,33.7 L191.9,37.5 C206.7,61.6 204.7,86.1 185.1,122.4 L180.8,129.7 L180.9,131.2 C182.3,128.8 184.3,125.6 185.7,123.1 C193.5,108.4 214.3,69.3 192.5,37.9 M225.9,66.3 L225,64.7 C231.2,76.6 235.4,85.9 236,105.4 L235.6,113 C235.2,110 234.7,107.1 234,104.2 C228.4,78.3 214.6,55.4 195.7,38.5 C193.7,36.7 191.6,34.9 189.4,33.2 C189.3,33.2 189.3,33.3 189.2,33.3 C191.4,35 193.5,36.8 195.5,38.6 C214.3,55.6 228.1,78.4 233.6,104.3 C234.3,107.6 234.9,110.9 235.3,114.2 L235.1,116.2 C235.2,116.1 235.4,116 235.5,115.9 L235.5,115.7 C235.5,115.8 235.5,115.8 235.5,115.9 C235.6,115.8 235.7,115.8 235.8,115.7 C235.8,115.3 235.7,114.9 235.6,114.4 C235.7,111.8 236,108.4 236,105.8 C235.7,95.9 235.2,83.3 225.9,66.3 M41.9,43.6 L40.2,45.5 L41.7,43.8 C45.3,40.2 50.3,35.5 54.2,32.2 C72.2,18.9 88.3,10.7 117.2,8 C98.2,10 79.1,13.3 54.2,32.1 L48.1,37.4 C48.1,37.4 48.1,37.4 48,37.5 C47.8,37.7 47.5,37.9 47.3,38.1 C47.3,38.1 47.3,38.1 47.4,38 L41.9,43.6 M102.1,9 C106.9,7.7 111.9,7.4 117.2,8.1 C112,7.3 107,7.6 102.3,8.9 L102.1,9 M112.3,7.1 C113.8,7.2 113.8,7.2 117.2,8 C113.8,7.1 113.7,7.1 112.5,7.1 L112.3,7.1 M128.6,6.5 C123.5,6.6 120.8,6.6 117.2,8.1 C120.9,6.9 122.8,6.4 129,6.5 L128.6,6.5 M184.5,28.6 C165.9,12.6 143.8,5.9 117.2,8 C144,6 165.9,12.6 183.9,28.3 L186.9,31.3 C185.3,30.1 183.6,28.9 182,27.8 C163.1,15.3 140.8,8 117.2,8 C140.7,8 163,15.3 181.8,27.9 C183.8,29.2 185.7,30.6 187.6,32 L188.3,32.8 C188.4,32.7 188.5,32.6 188.7,32.6 C188.5,32.4 188.3,32.3 188.1,32.1 L184.5,28.6 M148,33.2 C138.6,20.1 128.1,11.1 117.2,8 C127.9,11.1 138.3,20.1 147.5,33.2 C149,35.3 150.4,37.5 151.8,39.8 L152.8,40.4 C151.3,38 149.7,35.5 148,33.2 M98,41.7 C102.9,25.2 109.5,13.1 117.2,8.1 C109.3,13.2 102.6,25.2 97.5,41.7 C96.9,43.6 96.3,45.7 95.8,47.7 L95.9,47.9 C96.1,47.9 96.2,47.9 96.4,47.9 C96.9,45.7 97.4,43.7 98,41.7 M63.9,34.6 C78.9,21.1 97.2,11.6 117.2,8 C97,11.5 78.7,21 63.6,34.5 C58,39.7 52.8,45.3 48.1,51.4 C32.9,71.3 23.3,96.2 21.8,122.6 C21.6,126.4 21.5,130.3 21.7,134.2 L22.1,133.2 C22,129.7 22.1,126.2 22.3,122.7 C23.8,96.2 33.4,71.3 48.5,51.4 C50.1,49.2 51.9,47.1 53.6,45.1 C53.6,45.1 53.5,45.1 53.5,45.1 C53.7,44.9 53.9,44.6 54.1,44.4 C54.1,44.4 54.2,44.4 54.2,44.4 C57.2,41 60.4,37.7 63.9,34.6" fill="#FFFFFF"/>
          <path d="M87.2,141 L87.6,140.5 C87.6,140.5 87.6,140.5 87.6,140.5 L87.2,141 C87.2,141 87.2,141 87.2,141 M180.2,133.1 L180.1,132.1 C179.8,132.1 179.5,132.2 179.2,132.2 C177,132.6 174.7,132.9 172.4,133.3 C165.9,134.3 159,135.2 151.8,136 C134,138 116.2,139.3 99.5,139.8 C96,139.9 92.6,140 89.3,140 L88.5,141 C88.7,141 89,141 89.2,141 C92.6,141 96.1,140.9 99.6,140.8 C116.3,140.3 134.1,139 151.9,137 C159.2,136.2 166.2,135.3 172.9,134.3 C174.8,134 176.7,133.7 178.5,133.4 C178.9,133.3 179.3,133.3 179.7,133.2 C179.8,133.1 180,133.1 180.2,133.1 M240.1,111 L240,109.9 C240.1,111.2 239.6,112.5 238.3,113.8 C237.7,114.5 236.9,115.1 235.9,115.8 C235.8,115.9 235.7,115.9 235.6,116 C235.6,116 235.6,116 235.6,116 C235.5,116.1 235.4,116.2 235.2,116.3 C234.2,116.9 233.1,117.6 231.8,118.2 C223.1,122.6 207.7,127 187.6,130.7 C185.4,131.1 183.2,131.5 180.9,131.9 L181,132.9 C183.2,132.5 185.3,132.2 187.4,131.8 C207.7,128.1 223.2,123.7 232,119.3 C233.1,118.7 234.2,118.1 235.1,117.6 C235.2,117.5 235.4,117.4 235.5,117.3 C235.6,117.2 235.7,117.2 235.8,117.1 C235.9,117 236,117 236.1,116.9 C237.1,116.2 237.9,115.6 238.5,114.9 C239.7,113.6 240.2,112.3 240.1,111 M152.3,48.8 L153.4,43.7 C153.1,43.7 152.9,43.8 152.6,43.8 L151.5,48.4 C144.5,69.3 137,78.7 94.9,131 C93.1,133.3 90.7,136.3 88.9,138.6 L88.3,139.4 C88.7,139.4 89.2,139.4 89.6,139.4 C91.4,137.1 93.9,133.9 95.7,131.6 C134.3,83.8 147.3,67.7 152.3,48.8 M153.6,42.8 L153,41.8 L152.8,43 C153,42.9 153.3,42.9 153.6,42.8 L153.6,42.8 M153.9,35.3 C152.9,28.3 150.3,9.6 117.2,8 L117.2,8 C125.6,8.7 151.4,10.7 153.2,34.8 C153.2,36.6 153.2,39 153,40.8 L153.6,41.8 C153.8,39.9 154.1,37.3 153.9,35.3 M131.9,6.6 L131.6,6.6 C127.1,6.6 125,6.6 117.2,8 C123.7,6.9 126.7,6.4 131.9,6.6" fill="#FFFFFF"/>
          <path d="M94.9,48.6 L95.3,48.2 L95.1,47.8 C93.6,47.8 92.1,47.8 90.6,47.8 C77,47.8 65.4,46.9 57.5,45.2 C56.3,44.9 55.2,44.7 54.1,44.4 C54.1,44.4 54,44.4 54,44.4 C53.8,44.6 53.6,44.9 53.4,45.1 C53.4,45.1 53.5,45.1 53.5,45.1 C54.5,45.4 55.6,45.7 56.8,45.9 C64.7,47.6 76.5,48.5 90.3,48.5 C91.8,48.6 93.3,48.6 94.9,48.6 M154,43.6 L153.6,42.9 C153.6,42.9 153.6,42.9 153.5,42.9 C153.2,42.9 153,43 152.7,43 C150.8,43.3 148.8,43.6 146.8,43.9 C143.2,44.4 139.5,44.9 135.6,45.3 C123.8,46.6 111.9,47.4 100.9,47.7 C99.3,47.7 97.7,47.8 96.2,47.8 C96,47.8 95.9,47.8 95.7,47.8 L95.9,48.2 L95.5,48.6 C95.7,48.6 95.8,48.6 96,48.6 C97.6,48.6 99.2,48.5 100.8,48.5 C111.9,48.2 123.9,47.4 135.8,46 C139.8,45.6 143.6,45.1 147.2,44.5 C149,44.2 150.8,44 152.5,43.7 C152.8,43.7 153,43.6 153.3,43.6 C153.6,43.6 153.8,43.6 154,43.6 M190.2,27.1 L189.4,26.5 C191.8,28.1 191.8,29.9 189.8,31.7 C189.5,32 189.1,32.3 188.7,32.6 C188.6,32.7 188.5,32.8 188.3,32.8 C187.8,33.1 187.3,33.4 186.8,33.7 C181.7,36.5 172.3,39.2 159.9,41.6 C158.1,42 156.1,42.3 154.2,42.6 L154.6,43.3 C156.5,43 158.4,42.6 160.2,42.3 C172.8,39.9 182.3,37.1 187.5,34.3 C188,34 188.5,33.8 188.9,33.5 C189,33.4 189.1,33.4 189.1,33.3 C189.1,33.3 189.2,33.2 189.2,33.2 C189.3,33.2 189.3,33.1 189.4,33.1 C189.8,32.8 190.2,32.5 190.6,32.2 C192.6,30.5 192.6,28.7 190.2,27.1 M47.3,38.1 C47.5,37.9 47.8,37.7 48,37.5 C48,37.5 48,37.5 48.1,37.4 C48.2,37.3 48.4,37.1 48.5,37 L47.8,37.7 C47.6,37.8 47.5,37.9 47.3,38.1 C47.4,38.1 47.4,38.1 47.3,38.1" fill="#FFFFFF"/>
          <path d="M121.2,6.5 L121.4,6.5 C120.1,6.8 118.4,7.4 117.3,8.1 C118.3,7.4 119.9,6.6 121.2,6.5" fill="#FFFFFF"/>
          <path d="M198.5,213.9 C190.5,220.1 189.6,220.8 183.1,224.7 C177.7,227.7 173,230.3 165.2,233.3 C161.8,234.5 155.5,236.8 145.8,238.7 C151.1,236.9 159.1,234.3 167.3,220.9 C168.2,219.2 169.5,217 170.3,215.3 C172.3,214.9 174.9,214.5 176.9,214.1 C183.9,212.6 198.6,209.5 207,204.9 L208.9,203.7 L209.2,203.5 L210.4,202.5 L211,201.9 C203.5,209.6 202.4,210.7 198.5,213.9 M198.5,213.9 C206.8,206.4 207.2,206.1 211.6,201.2 L210.9,201.9 L209.9,202.7 L209.6,202.9 L209.6,202.9 L209.4,203 L207.5,204.2 C204.1,205.9 197,209.6 177.2,213.5 C175.2,213.9 172.5,214.4 170.5,214.8 L170.6,214.6 L171,213.7 C171.9,211.6 173.1,208.7 173.9,206.5 C178.5,192.2 183.3,174 181.4,138.6 L181,133 L180.9,132 L180.8,131.3 L180.7,129.8 C180.4,126.9 179.9,123.1 179.5,120.3 C177.1,105.2 173,80 157.9,49.8 L154.5,43.6 L154.1,42.9 L153.6,42.1 L153,41.1 L152.9,40.9 C152.9,40.9 152.8,40.8 152.8,40.8 L151.8,40.2 C149.7,38.9 147,37.1 144.9,35.7 C131.5,26.8 113.2,14.7 117.1,8.3 L117.1,8.3 C114.6,14.7 124.9,23 144.8,36.2 C147.1,37.7 150.1,39.7 152.4,41.2 L152.9,42 L153.5,43 C153.5,43 153.5,43 153.5,43.1 L153.9,43.8 L157.2,50 C162.6,61.3 172.8,82.3 178.5,120.5 C178.9,123.7 179.4,127.9 179.8,131.1 L179.9,132.2 L180,133.2 L180.4,138.9 C181.1,154 182.3,179.3 173.1,206.7 C172.2,209.1 171,212.2 169.9,214.5 L169.7,215 L169.2,215.1 C167.1,215.4 164.3,215.9 162.2,216.2 C153.6,217.4 135.8,220 111.6,220.9 L106.9,221 L105.8,221 L106.9,221 L106.3,221.9 C106.3,221.9 106.3,221.9 106.3,221.9 C107.1,223.4 107.8,224.7 108.6,226 C114.4,235.4 120.9,240.6 127.6,240.5 L127.8,240.5 C121.2,240.6 114.8,235.4 109.2,226 C108.4,224.6 107.5,223.1 106.7,221.5 L111.8,221.3 C120.6,220.9 139,220.1 162,216.6 C163.9,216.3 166.4,215.9 168.3,215.6 L169.2,215.5 L169.4,215.5 C168.5,217.2 167.4,219.4 166.4,221.1 C162.4,227.1 156.4,236.2 145.2,238.9 C150.5,237.9 156.8,236.5 164.9,233.5 C170.6,231.2 175.5,229.2 182.8,224.9 C190.1,220.2 193.7,218 198.5,213.9" fill="#FFFFFF"/>
          <path d="M89.2,12.5 L89.6,12.4 C95,10.7 101.7,8.6 117.2,8 C109.1,8.5 98.9,9.1 89.2,12.5" fill="#FFFFFF"/>
          <path d="M106.6,221.8 L104.9,224.9 C102.7,230 99.5,237.8 114.1,239.7 L113.7,239.7 C107.6,238.6 98.4,237 104.2,224.6 L106,221.4 L100.8,221.4 C93,221.4 76.9,221.3 64.9,218.8 C63.8,218.6 62.4,218.2 61.4,217.9 L61.1,217.8 L60.9,217.7 L60.6,217.4 L60.2,216.9 C59.2,215.5 57.9,213.6 57.1,212 C52.1,198.5 54.5,185.1 81,149 C82.8,146.5 85.3,143.2 87.2,140.8 L87.6,140.3 C87.6,140.3 87.6,140.3 87.6,140.3 C84.1,140.3 80.7,140.3 77.4,140.3 C56,140.1 37.8,138.6 25.8,135.8 C24.5,135.5 23.2,135.2 22.1,134.8 C22,134.8 21.8,134.7 21.7,134.7 C21.6,134.7 21.5,134.6 21.4,134.6 L21.7,134 L22.1,133 C23,131.1 24.1,128.6 25.1,126.7 C37.6,105 45.6,97.1 90.4,53 L94.8,48.6 L95.2,48.2 L95,47.8 L93.4,43.5 C90.3,30.8 90,15.2 117.2,8 C96.1,14 89,24.8 94.1,43.1 L95.8,47.7 L95.9,47.9 L96.1,48.3 L95.7,48.7 L95.5,48.9 L90.7,53.7 C47.6,96.3 37.3,106.4 25.2,128 C24.3,129.9 23.1,132.3 22.3,134.2 C23.4,134.5 24.6,134.8 25.9,135.1 C37.9,137.8 56,139.4 77.3,139.5 C80.8,139.5 84.4,139.5 88.1,139.5 C88.2,139.5 88.3,139.5 88.3,139.5 C88.7,139.5 89.2,139.5 89.6,139.5 C89.6,139.5 89.6,139.5 89.6,139.5 L89.2,140 L88.4,141 L88.2,141.3 C86.2,143.9 83.6,147.3 81.7,149.9 C64,174.3 50,195.8 57.9,212.7 C58.8,214.2 59.9,216.1 60.9,217.5 C61.9,217.8 63.3,218.1 64.4,218.3 C69.2,219.2 79,221 100.5,220.9 L106.1,220.8 L106.1,220.8 L107.2,220.8 L106.6,221.8" fill="#FFFFFF"/>
        </g>
      </g>
      <path d="M13.2,179.4 C13.2,179.3 13.2,179.2 13.3,179.1 C13.3,179.1 13.3,179 13.3,179 C13.3,179.2 13.2,179.3 13.2,179.4 z" fill="#FFFFFF" opacity="0.42"/>
      <path d="M13.9,175.4 C13.9,175.5 13.9,175.5 13.9,175.6 C14,175.3 14,174.9 14.1,174.6 C14,174.9 13.9,175.1 13.9,175.4 z M13.3,179.1 C13.3,179.2 13.3,179.3 13.2,179.4 C13.2,179.3 13.3,179.2 13.3,179.1 C13.3,179 13.3,179.1 13.3,179.1 z" fill="#FFFFFF"/>
      <path d="M13.9,114.4 C13.9,114.5 13.9,114.5 13.9,114.6 C14,114.3 14,113.9 14.1,113.6 C14,113.9 13.9,114.1 13.9,114.4 z M13.3,118.1 C13.3,118.2 13.3,118.3 13.2,118.4 C13.2,118.3 13.3,118.2 13.3,118.1 C13.3,118 13.3,118.1 13.3,118.1 z M131.9,6.6 L131.6,6.6 L133.5,6.8 L131.9,6.6 z" fill="#FFFFFF"/>
      <g>
        <path d="M75,77.9 C74.8,78.3 74.5,78.6 74.2,78.9 L74.2,78.9 C74.2,78.9 74.2,78.9 74.2,78.9 C74.2,78.9 74.2,78.9 74.1,78.9 C73.8,79.1 73.5,79.3 73.2,79.5 C68.1,81.7 63.7,84.3 59.9,87.1 C59.6,87.3 59.4,87.5 59.1,87.7 L59.1,87.7 C49.5,95.2 44.2,104.4 41.3,111.1 C41.1,111.5 41,111.9 40.8,112.3 C38.9,117.1 38.2,120.5 38.2,120.6 C37.9,122.5 36.3,123.8 34.5,123.8 C34.3,123.8 34.1,123.8 33.9,123.8 C31.8,123.4 30.5,121.5 30.8,119.4 C30.9,119.1 31.2,117.5 31.9,114.9 C32,114.5 32.1,114.1 32.3,113.8 C35,105.3 42.2,89.1 60,77.9 C60.3,77.7 60.5,77.6 60.8,77.4 C63.2,75.9 65.9,74.5 68.7,73.2 C68.7,73.2 68.8,73.2 68.8,73.2 C68.8,73.2 68.8,73.2 68.8,73.2 C69.2,73 69.6,72.8 70,72.6 C70.1,72.6 70.2,72.5 70.3,72.5 C72.2,71.7 74.4,72.6 75.3,74.5 C75.7,75.7 75.6,76.9 75,77.9 z" fill="#FFFFFF"/>
        <path d="M83,98.7 C78.9,100.4 75.6,102.5 72.7,104.8 C72.2,105.2 71.7,105.6 71.2,106.1 L71.2,106.1 C68.8,108.3 66.8,110.6 65.2,112.9 C65,113.2 64.8,113.4 64.6,113.7 C63,116.1 61.8,118.5 60.9,120.5 C60.7,121 60.5,121.6 60.3,122.1 C59.1,125.1 58.8,127.1 58.8,127.2 C58.5,129.1 56.9,130.4 55.1,130.4 C54.9,130.4 54.7,130.4 54.5,130.3 C52.4,130 51,128 51.4,125.9 C51.5,125.4 52.5,119.8 56.3,113 C58.6,108.8 61.9,104.2 66.7,100 C70.3,96.8 74.7,93.9 80.2,91.7 C82.1,90.9 84.3,91.8 85.2,93.7 C85.9,95.6 85,97.8 83,98.7 z" fill="#FFFFFF"/>
        <path d="M213.2,134.2 C213.2,134.6 213.2,135 213.1,135.3 C212.7,140 211.6,144.6 209.9,149 C207.6,155 204.1,160.5 199.8,165.2 C199.7,165.3 199.5,165.5 199.4,165.6 C199.2,165.8 199,166 198.8,166.2 L198.7,166.3 C197.7,167.3 196.7,168.2 195.6,169.2 C195,169.7 194.4,170.2 193.7,170.7 C193.7,170.7 193.6,170.8 193.6,170.8 C193.2,171.1 192.8,171.4 192.4,171.7 C192.3,171.8 192.1,171.9 192,172 C191.8,172.1 191.7,172.2 191.5,172.3 C191.1,172.5 190.8,172.8 190.5,173 C190.1,173.2 189.8,173.5 189.4,173.7 C187.4,174.9 185.3,176 183.2,177 L155.4,189.2 L152.5,190.5 L151.9,190.8 L147.2,192.8 C146.7,193 146.1,193.3 145.6,193.5 C145.6,193.5 145.6,193.5 145.6,193.5 C144.9,193.8 144.3,194.1 143.6,194.5 C138.2,197.3 133.5,201.1 129.6,205.4 C129.4,205.6 129.2,205.9 129,206.1 C125.3,210.5 122.3,215.4 120.2,220.7 C119.7,222 119.3,223.3 118.9,224.5 C118.8,224.7 118.8,224.9 118.7,225.2 C118.1,227.2 117.7,229.2 117.3,231.3 C117.3,231.3 117.3,231.4 117.3,231.4 C117.2,231.8 117.2,232.2 117.1,232.6 C117,233.3 116.9,234 116.9,234.7 C116.9,234.7 116.9,234.7 116.9,234.7 C116.8,235.1 116.8,235.5 116.8,235.9 C116.8,236 116.8,236.1 116.8,236.2 C116.8,236.6 116.7,237.1 116.7,237.5 C116.7,237.5 116.7,237.5 116.7,237.5 L116.7,237.6 C116.7,237.6 116.7,237.7 116.7,237.8 C116.7,237.8 116.7,237.8 116.7,237.8 C116.7,238.7 116.6,239.5 116.7,240.4 C116.7,240.4 116.7,240.5 116.7,240.5 C116.5,240.5 115.8,240.4 115,240.2 C111.6,239.9 108.3,239.4 105,238.9 C105.1,238.6 105.2,238.4 105.2,238.1 C105.2,238.1 105.2,238 105.2,238 C105.2,238 105.2,238 105.2,238 C105.2,237.9 105.2,237.9 105.2,237.8 C105.4,237.1 105.4,236.4 105.4,235.7 C105.4,235.7 105.4,235.7 105.4,235.6 C105.4,235.4 105.4,235.1 105.3,234.8 C105.3,234.7 105.1,233.8 105,232.2 C105,232.1 105,231.9 105,231.8 C105,231.7 105,231.5 104.9,231.4 C104.9,231.4 104.9,231.3 104.9,231.3 L104.9,231.3 L104.9,231.2 L104.9,230.9 C104.9,230.9 104.9,230.8 104.9,230.8 C104.7,229.2 104.6,227.1 104.4,224.7 C104.4,224.5 104.4,224.3 104.4,224 C104.3,223 104.3,222 104.3,221 C104.3,220.8 104.3,220.7 104.3,220.5 C104.1,213.7 104.4,205.1 105.7,195.8 C105.7,195.5 105.8,195.2 105.8,194.9 C105.8,194.8 105.8,194.8 105.8,194.8 C105.8,194.5 105.9,194.3 105.9,194 C105.9,194 105.9,193.9 105.9,193.9 C106,193.6 106,193.3 106.1,192.9 C106.2,192.4 106.3,191.9 106.4,191.5 C106.4,191.2 106.5,191 106.5,190.7 C106.6,190.3 106.6,190 106.7,189.6 C109,178 112.9,167.9 118.1,159.4 C118.3,159 118.6,158.7 118.8,158.3 C125.6,147.8 134.6,139.7 145.9,134.1 C146.4,133.9 146.8,133.6 147.3,133.4 C148.1,133 148.9,132.6 149.8,132.3 C149.8,132.3 149.8,132.3 149.8,132.3 L150.7,131.9 L151.5,131.6 L152.4,131.2 L172,122.9 C172.5,122.7 173,122.4 173.5,122.1 C173.8,121.9 174,121.7 174.2,121.5 C176.8,119.2 177.8,115.4 176.4,112.1 C176.3,111.8 176.1,111.5 176,111.2 L174.4,107.1 C173.9,105.7 172.2,105 170.8,105.6 L166.5,107.4 C166.2,107.5 165.9,107.6 165.5,107.7 L163,108.8 L162.1,109.2 L151.8,113.6 L150.9,114 L143.4,117.2 C141.6,118 139.8,118.8 138.1,119.7 C137.8,119.9 137.5,120 137.2,120.2 C135.7,121 134.2,121.8 132.7,122.7 C132.3,122.9 131.8,123.2 131.4,123.5 C121.3,129.7 112.9,137.8 106.2,147.7 C105.9,148.1 105.7,148.4 105.4,148.8 C99.5,157.8 94.9,168.3 91.9,180.1 C91.8,180.4 91.7,180.8 91.6,181.2 C90.9,183.8 90.4,186.5 89.9,189.2 C89.8,189.8 89.7,190.3 89.6,190.8 C88.8,195.3 88.8,200.8 88.5,205.1 C88.4,205.1 88.2,205 88.1,205 C88,204.8 87.9,204.5 87.8,204.2 C87.6,203.5 87.3,202.8 87.2,202.4 L87.2,202.4 L80.5,187.2 L79.4,184.7 L74.4,173.3 L73.5,171.3 L73,170.1 C72.7,169.4 72.4,168.7 72.1,167.9 C72.1,167.9 72.1,167.9 72.1,167.9 L72.1,167.9 C72.1,167.9 72.1,167.8 72.1,167.8 C71.9,167.3 71.7,166.7 71.5,166.2 C71.5,166.2 71.5,166.2 71.5,166.2 C70.9,164.6 70.5,163 70.1,161.4 C68.6,155.1 68.4,148.6 69.3,142.4 C69.4,142 69.4,141.5 69.5,141.1 C70.1,137.8 71,134.5 72.2,131.3 C72.4,130.8 72.6,130.3 72.8,129.7 C73.2,128.8 73.6,127.8 74.1,126.9 C74.2,126.6 74.4,126.4 74.5,126.1 C74.9,125.3 75.3,124.6 75.7,123.8 C75.9,123.5 76.1,123.1 76.3,122.8 C76.3,122.8 76.3,122.8 76.4,122.7 C80.7,115.8 86.6,109.9 94,105.6 C94.1,105.6 94.1,105.5 94.2,105.5 C95.4,104.8 96.6,104.2 97.9,103.5 C98.3,103.3 98.7,103.2 99.1,103 L101.6,101.9 L101.7,101.9 L101.7,101.9 L102.2,101.7 L103.1,101.3 L103.1,101.3 L104.8,100.6 L105,100.5 L105,100.5 C105,100.5 105,100.5 105,100.5 L106,100.1 L106,100.1 L109.5,98.6 L110,98.4 L110,98.4 L111.2,97.9 L111.2,97.9 L114.1,96.6 L115.1,96.1 L120.3,93.8 L127,90.9 L133.6,88 L135.6,87.1 L136.6,86.6 L138.2,85.9 L139.2,85.5 L148.1,81.6 L149,81.2 L175,69.8 L175.2,69.7 L175.3,69.7 L175.7,69.5 L176.3,69.2 L176.4,69.2 L176.4,69.2 L176.4,69.2 L177.5,68.7 L180.7,67.3 C183.5,66.1 186.6,66.4 189.1,68 C189.2,68 189.2,68.1 189.3,68.1 C190.6,69 191.7,70.3 192.4,71.8 L197.7,83.7 L197.7,83.7 L198.5,85.6 L198.5,85.6 L198.6,85.8 L199.5,87.7 L204.2,98.4 L204.7,99.4 L208.4,107.9 L209,109.2 L209.1,109.5 L209.3,109.9 L209.4,110 C209.5,110.3 209.6,110.5 209.7,110.8 C209.8,110.9 209.8,111.1 209.9,111.2 C210.1,111.6 210.2,111.9 210.3,112.3 C212,116.7 213,121.3 213.4,125.8 C213.5,126.3 213.5,126.9 213.5,127.4 C213.3,129.8 213.3,132 213.2,134.2 z" fill="#FFFFFF"/>
      </g>
      <path d="M240,109.9 C239.8,108.5 238.8,107.2 236.9,106 C234.7,104.5 231.4,103.2 227.1,102.1 C227.1,96.9 224.8,91.6 221.9,89.9 L221.7,89.8 C218.3,75.5 212.7,51.4 187.4,28.5 C187.4,28.5 187.5,28.5 187.5,28.5 C188.1,28.4 187.8,27.9 187.7,27.7 C189.3,28.7 190.9,29.8 192.5,30.8 C190.9,29.7 189.3,28.6 187.6,27.4 C187.1,26.7 186.2,25.8 184.8,24.7 C187.1,25.4 188.9,26.1 190.2,26.9 C190.3,26.9 190.3,27 190.4,27 L189.6,26.4 C189.6,26.4 189.5,26.4 189.5,26.3 C188.3,25.5 186.5,24.7 184.2,24.1 C179.2,20.4 172.9,17.4 170.5,16.8 C169.9,16.7 169.8,16.7 169.7,16.8 C169.7,17 169.8,17.2 170.4,17.8 C155.6,11.3 147.6,8.8 134.6,6.8 L134.1,6.7 L134.4,6.8 C141.3,8.5 139.8,12.5 136.9,17.9 C135.8,17.5 134.9,17.3 133.8,17.3 C133.7,17.3 133.6,17.3 133.5,17.3 C129.9,11 127.1,6.9 121.7,6.4 L121.5,6.4 C124.1,6.8 127.8,7.3 132.9,17.3 C132.2,17.4 131.7,17.6 131.2,17.9 C113.6,8.1 113.6,8.1 112.7,7.3 C112.8,7.2 112.8,7.1 112.9,7.1 L112.7,7.1 L112.7,7.1 C112.6,7.2 112.6,7.3 112.5,7.4 C113.5,8.4 113.5,8.4 130.9,18.2 C130.3,18.7 129.6,19.7 130,21.3 C121.3,21.7 112.1,22.4 103,23.5 C96,24.2 89.8,25.1 84.2,26 C84.2,26 84.3,25.9 84.3,25.8 C86.4,23.1 87.7,19.5 84.1,20 L83.8,20.1 C89.3,14.6 95.5,10.8 102.3,8.9 L102.1,9 C95.2,10.9 89,14.7 83.5,20.2 C81.8,20.7 80.1,21.5 78,22.9 C78.8,20.5 79.7,17.8 84.1,15.1 C80.9,16.9 77.9,19.5 77.4,23.3 C76.8,23.8 74.8,25.2 73.2,27.1 C72.7,27.6 72.5,28.1 72.3,28.3 C61,30.8 53,33.6 49.3,36.4 C49.1,36.6 48.8,36.8 48.6,37 L48.2,37.4 C48.3,37.3 48.5,37.2 48.6,37.1 C52.3,34.3 60.5,31.4 71.9,28.9 C71.9,29 71.8,29.1 71.8,29.1 C70.9,30.9 71.4,31.7 71.6,32 C25.8,68.5 17.6,99.8 14,113.1 C14,113.1 13.6,111.2 12.8,111.6 L12.7,111.7 C15.9,76.9 29.4,58.4 41.8,43.8 L40.2,45.6 C16.8,72.7 14,98.2 12.5,111.9 C11.2,114.3 10.8,121.6 11.1,127.3 C11.3,130.9 12,136.9 13.4,136.4 C19.2,171.5 34.3,189.9 47.9,204.3 C47.8,205.7 51.1,209.2 54.3,211.8 C56.4,213.5 59.9,215.9 61.2,215.7 C77.5,227.2 92.1,233 105.1,235.9 C108.7,236.7 112.2,237.3 115.6,237.7 C115.6,237.7 115.6,237.7 115.6,237.7 C111.9,237.2 108.4,236.6 105.1,235.8 C86.1,231.5 72.7,223.3 61.3,215.6 C61.3,215.6 61.3,215.6 61.3,215.5 C61.5,215.1 60.7,214.1 60.4,213.8 C73,220.6 88.6,226.8 104.6,231.6 C108.4,232.8 112.2,233.8 116,234.8 C116,234.8 116,234.8 116,234.8 C112.5,233.9 108.7,232.8 104.5,231.5 C91.6,227.5 76,221.6 59.9,213.3 C58.9,212.1 57.7,211 56.1,209.5 L55.8,209.2 C61.1,204.6 74.1,201.3 80.3,199.8 C80.4,199.9 80.5,200 80.6,200.1 C82.4,202 85,204.1 87.8,205 C87.9,205 88.1,205.1 88.2,205.1 C88.5,200.8 88.5,195.3 89.3,190.8 C86.8,188.4 83.7,187 80.8,187.2 L80.4,187.3 C80.4,187.3 80.4,187.2 80.3,187.2 C80.3,187.2 80.2,187.2 80.2,187.2 C80,187.2 79.8,187.3 79.7,187.3 C79.7,187.4 79.8,187.4 79.8,187.5 C78,188.2 77,189.4 76.8,191.5 C56.2,177.5 25,156.5 14.8,131 C15,128.3 15.1,125.6 15,122.3 C18.6,119.8 24.3,117.3 31.9,115 C34.6,114.1 37.6,113.3 40.8,112.4 C40.9,112 41.1,111.6 41.3,111.2 C38,112 35,112.9 32.2,113.8 C24.4,116.2 18.5,118.8 14.9,121.3 C14.8,118.1 14.5,116 14.1,114 L14,113.7 C13.9,114 13.9,114.3 13.8,114.7 C13.8,114.7 13.8,114.6 13.8,114.5 C13.8,114.2 13.9,113.9 14,113.7 C21.3,83.9 39.1,58.7 71.6,32.3 C71.6,32.3 71.7,32.4 71.7,32.4 C72.4,32.9 73.4,32.8 73.8,32.8 C66.8,44.6 61.9,60.1 59.8,78.1 C59.4,81.3 59.1,84.6 59,88 C59.3,87.8 59.5,87.6 59.8,87.4 C60,84.1 60.3,80.8 60.6,77.6 C62.6,59.8 67.4,44.5 74.3,32.7 C75.6,32.4 76.9,31.9 78.4,31 C82.5,39.2 90.6,46.3 101.5,55.5 C101.7,55.7 102,55.9 102.2,56.1 C102.2,56.1 102.2,56.1 102.2,56.1 C126.7,76.3 129.8,78.9 137.8,86.1 C139,87.2 140.3,88.3 141.8,89.7 C139.7,92.1 138.7,94.8 138.8,98.2 C127.6,98.8 116,99.7 104.4,100.9 L102.7,101.6 L102.7,101.6 L101.8,102 L101.3,102.2 C114,100.8 126.7,99.8 138.9,99.2 C138.9,99.4 139,99.6 139,99.8 C139.8,104.6 143.7,110 150.4,110.6 C150.5,111.8 150.5,113.1 150.6,114.4 L151.5,114 C151.4,112.9 151.4,111.8 151.3,110.6 C151.3,110.6 151.3,110.6 151.3,110.6 C153.4,110.6 156.4,109.9 159.1,106.8 C160,107.7 160.9,108.7 161.7,109.6 L162.6,109.2 C161.6,108.1 160.6,107 159.7,106 C161.2,103.7 161.9,101.3 161.8,98.4 C177.6,98.2 192,98.6 204.1,99.7 C209.2,100.2 214,100.8 218.2,101.5 C218.2,101.6 218.3,101.7 218.3,101.8 C218.7,103.1 220.4,107.3 223.2,108 C223.5,123.3 224.1,148.9 205.9,182.8 C204.6,182.8 203.3,183.4 201.5,184.7 C201.8,178.3 200.8,172 199.1,165.8 C194.4,149.4 183.8,133.9 173.9,121.9 C173.7,122.1 173.4,122.3 173.2,122.5 C188.8,141.6 195.6,155.8 198.6,166.5 C200.9,174.6 200.9,180.7 201,185.3 C199.1,186.9 197.7,188.7 196,191.1 C181,189.2 163.5,189.7 155.1,189.9 C155.1,189.8 155.1,189.6 155,189.5 C154.6,186.8 152.8,185.2 150.2,185.1 L149.9,185.1 C151.2,171.5 152.5,155.3 152,131.6 L151.1,132 C151.4,146.2 151.2,164.2 149.2,185.2 C147.8,185.4 146.8,186 145.6,187 C137.4,176.6 128.1,167.4 118.3,158.7 C118.1,159.1 117.8,159.4 117.6,159.8 C127.4,168.4 136.7,177.5 145,187.6 C144.2,188.5 143.8,189.4 143.4,190.5 C127.2,191.5 114.5,193 105.3,194.4 C105.3,194.7 105.2,194.9 105.2,195.2 C121.8,192.7 135.7,191.8 143.2,191.3 C143.1,191.6 143,192.2 143,192.9 C143,193.7 143.1,194.3 143.2,194.8 C143.3,195.4 143.5,195.9 143.6,196.1 C143.6,196.1 143.6,196.2 143.5,196.2 C143.6,196.4 143.7,196.6 143.8,196.9 C143.8,196.9 143.9,196.8 143.9,196.8 C144,196.9 144,197 144.1,197.1 C144.9,198.4 146.1,199.2 147.5,199.4 C147.7,199.4 148,199.3 148.3,199.3 C148.4,199.3 148.6,199.3 148.7,199.3 C150.3,199 151.5,198.1 151.9,197.7 C152.1,197.4 152.4,197.2 152.6,197 C154.5,194.8 155,192.5 155.1,191 L155.1,190.8 C172.9,190.3 183.1,190.6 195.4,192 C195.3,192.1 195.2,192.3 195.1,192.5 C193.4,195.4 191.1,200.5 193.1,201.7 C193.3,201.7 193.5,201.8 193.6,201.9 C194.6,202 195.8,201.5 197.6,200.4 C197.6,200.5 197.5,200.6 197.5,200.7 C197.7,200.5 197.9,200.4 198.1,200.2 C198.1,200.1 198.2,200.1 198.2,200 C201.1,197.9 202.9,195.6 204.2,194 C212.3,196.8 212.8,199.2 210.7,202.2 C210.9,202 211.1,201.8 211.3,201.6 C214.3,197.7 211,195.5 204.7,193.2 C208,188.3 208.7,184.2 206.5,183.2 L206.3,183.1 C216.1,164.3 225,142.3 223.7,108.3 L223.9,108.3 C225,108.2 225.6,107.4 225.8,107.1 C245.4,148.5 228.6,176.4 221.4,188.3 L222.4,186.8 L222.6,186.5 C244.9,150.8 231.8,119.7 226.2,106.5 C226.6,105.6 226.8,104.7 227,103.5 C231.3,104.6 234.7,105.9 236.9,107.4 C238.8,108.7 239.8,110 240,111.4 L240,109.9 z M14.7,131.8 C22.9,149.6 35.3,164.5 76.9,192.1 C76.9,192.8 77,195.1 79.2,198.1 C79.5,198.5 79.8,198.9 79.9,199 C66.4,202.4 60.2,204.8 55.3,208.5 C51.6,205.4 49,203.7 48.1,204 L48,204 C20.9,176.1 16.3,151.1 13.6,136.1 C13.6,136.1 13.7,136 13.7,136 C14.3,135.1 14.6,132.6 14.7,131.8 z M134.6,7 C148.8,9.3 157.1,12.3 170.5,18.2 C171.8,19.3 173.6,20.7 174.9,21.6 C175.4,22 175.9,22.3 176.4,22.7 C167.3,21.3 154.7,20.7 140.5,21 C139.8,19.9 138.8,19.1 137.4,18.4 L137.2,18.3 C141.8,10 139,8.4 134.6,7 z M142.7,88.8 C141.4,87.6 140.2,86.5 139,85.5 C130.5,77.9 124.2,72.7 103.6,55.8 C103.1,55.5 102.7,55.2 102.4,54.8 L102.4,54.8 C87.5,42.5 83.4,37.7 79.2,30.5 C81,29.3 82.3,28.2 83.7,26.7 C89.5,25.7 95.7,24.9 102.4,24.1 C111.6,23.1 120.8,22.3 129.7,21.9 C129.7,21.9 129.8,22 129.8,22.1 C130.4,23.4 131.4,24.2 131.8,24.4 C131.8,24.4 131.8,24.4 131.8,24.4 C132,24.5 132.2,24.6 132.4,24.8 C132.5,24.8 132.5,24.9 132.6,24.9 C134.2,25.8 135.7,25.9 136.2,26 C138.9,34 143.9,48.5 148,81.6 C148.2,83.1 148.4,84.6 148.5,86.2 C146.2,86.4 144.4,87.2 142.7,88.8 z M203.9,98.5 C191.9,97.4 177.6,97 162,97.2 C161,90.8 156.3,86.3 150.2,86 C150,86 149.7,86 149.5,86 C149.3,84.5 149.1,82.8 148.9,81.1 C147.1,66.7 144.1,45.6 136.9,25.9 C138.1,25.9 139.8,25.6 140.7,24.2 C191.9,54.9 209.5,80.1 217.9,92.2 C217.4,93.8 217.3,95.8 217.6,98 C217.7,99 217.9,99.8 218.1,100.2 C213.9,99.6 209.1,99 203.9,98.5 z M221.1,89.7 C219.9,89.4 218.9,90.1 218.2,91.6 C205.3,72.9 187.1,51.8 140.9,23.8 C141.1,23 141.1,22.4 140.7,21.5 C155.1,21.2 167.9,21.8 177.1,23.3 C177.2,23.4 177.3,23.5 177.5,23.5 C181.5,26.2 184.8,28 186.6,28.5 C186.6,28.5 186.6,28.5 186.6,28.5 C186.8,28.6 187,28.6 187.2,28.6 L187.2,28.6 C199.7,40.5 213.8,56 221.1,89.7 C221.1,89.7 221.1,89.7 221.1,89.7 z M200.3,192 C200.3,192.1 200.2,192.1 200.2,192.2 L200.3,191.6 L200.5,191.6 L200.3,192 z" fill="#FFFFFF" opacity="0.42"/>
      <g>
        <path d="M347.9,93.1 C345.4,88.5 341.9,84.8 337.4,82.2 C332.9,79.6 327.9,78.3 322.2,78.3 L286,78.3 C284.7,78.3 283.6,78.7 282.7,79.6 C281.8,80.5 281.4,81.6 281.4,82.9 L281.4,180.8 C281.4,182.1 281.8,183.2 282.7,184.1 C283.6,185 284.7,185.4 286,185.4 C287.3,185.4 288.4,185 289.3,184.1 C290.2,183.2 290.6,182.1 290.6,180.8 L290.6,140.1 L322.3,140.1 C327.9,140.1 333,138.7 337.5,136 C342,133.2 345.5,129.5 348,124.7 C350.5,119.9 351.8,114.6 351.8,108.8 C351.7,102.9 350.4,97.7 347.9,93.1 z M336.7,124.8 C333,129.1 328.2,131.2 322.3,131.2 L290.6,131.2 L290.6,87.3 L322.3,87.3 C328.2,87.3 333,89.3 336.7,93.3 C340.4,97.3 342.2,102.4 342.2,108.8 C342.2,115.2 340.4,120.5 336.7,124.8 z" fill="#94979B"/>
        <path d="M426.5,115.3 C422,109.5 415.2,106.6 406,106.6 C400.9,106.6 395.9,108 391,110.8 C386.1,113.6 382.3,117.2 379.5,121.6 L379.5,76.8 C379.5,75.5 379.1,74.4 378.2,73.5 C377.3,72.6 376.2,72.2 374.9,72.2 C373.6,72.2 372.5,72.6 371.6,73.5 C370.7,74.4 370.3,75.5 370.3,76.8 L370.3,180.8 C370.3,182.1 370.7,183.2 371.6,184.1 C372.5,185 373.6,185.4 374.9,185.4 C376.2,185.4 377.3,185 378.2,184.1 C379.1,183.2 379.5,182.1 379.5,180.8 L379.5,137.5 C379.5,133.5 380.7,129.8 383,126.4 C385.3,123 388.4,120.3 392.2,118.2 C396,116.2 400.1,115.1 404.4,115.1 C411.1,115.1 416.1,117.2 419.2,121.3 C422.4,125.4 423.9,130.8 423.9,137.4 L423.9,180.7 C423.9,182 424.3,183.1 425.2,184 C426.1,184.9 427.2,185.3 428.5,185.3 C429.8,185.3 430.9,184.9 431.8,184 C432.7,183.1 433.1,182 433.1,180.7 L433.1,137.4 C433.2,128.4 431,121 426.5,115.3 z" fill="#94979B"/>
        <path d="M524.4,125.4 C521,119.2 516.4,114.3 510.5,110.7 C504.6,107.1 498,105.4 490.8,105.4 C483.6,105.4 477,107.2 471.1,110.7 C465.2,114.3 460.6,119.2 457.2,125.4 C453.8,131.6 452.1,138.6 452.1,146.2 C452.1,153.9 453.8,160.8 457.2,167 C460.6,173.2 465.2,178.1 471.1,181.6 C477,185.1 483.6,186.9 490.8,186.9 C498,186.9 504.6,185.1 510.5,181.6 C516.4,178.1 521,173.2 524.4,167 C527.8,160.8 529.4,153.8 529.4,146.2 C529.4,138.6 527.7,131.6 524.4,125.4 z M516.4,162.7 C513.8,167.6 510.3,171.4 505.8,174.2 C501.3,177 496.2,178.3 490.7,178.3 C485.2,178.3 480.2,176.9 475.7,174.1 C471.2,171.3 467.7,167.4 465.1,162.6 C462.5,157.7 461.2,152.2 461.2,146.2 C461.2,140.1 462.5,134.6 465.1,129.7 C467.7,124.8 471.2,121 475.7,118.2 C480.2,115.4 485.2,114 490.7,114 C496.2,114 501.2,115.4 505.8,118.2 C510.3,121 513.9,124.9 516.4,129.7 C518.9,134.6 520.2,140.1 520.2,146.2 C520.2,152.3 519,157.9 516.4,162.7 z" fill="#94979B"/>
        <path d="M578.8,116.1 C580,116.1 581,115.7 581.9,114.9 C582.7,114.1 583.1,113.1 583.1,111.9 C583.1,110.8 582.7,109.8 581.8,108.8 C580.9,107.9 579.9,107.4 578.8,107.4 L563.5,107.4 L563.5,90.4 C563.5,89.1 563.1,88 562.2,87.1 C561.3,86.2 560.2,85.8 558.9,85.8 C557.6,85.8 556.5,86.2 555.6,87.1 C554.7,88 554.3,89.1 554.3,90.4 L554.3,107.4 L543.1,107.4 C541.9,107.4 540.8,107.8 540,108.6 C539.1,109.4 538.7,110.4 538.7,111.6 C538.7,112.8 539.1,113.8 540,114.7 C540.9,115.5 541.9,115.9 543.1,115.9 L554.3,115.9 L554.3,167.6 C554.3,173.2 555.3,177.3 557.3,179.8 C559.3,182.4 561.3,183.9 563.5,184.4 C565.7,184.9 568.1,185.2 570.8,185.2 C573,185.2 575,184.7 576.6,183.7 C578.2,182.7 579,181.5 579,180.1 C579,179.1 578.7,178.2 578,177.4 C577.3,176.6 576.6,176.3 575.6,176.3 C575.1,176.3 574.4,176.4 573.5,176.7 C572.6,177 571.8,177.1 571.2,177.1 C568.9,177.1 567,176.4 565.5,175 C564.1,173.6 563.4,171 563.4,167.1 L563.4,115.9 L578.8,115.9 z" fill="#94979B"/>
        <path d="M666.5,125.4 C663.1,119.2 658.5,114.3 652.6,110.7 C646.7,107.1 640.1,105.4 632.9,105.4 C625.7,105.4 619.1,107.2 613.2,110.7 C607.3,114.3 602.7,119.2 599.3,125.4 C595.9,131.6 594.2,138.6 594.2,146.2 C594.2,153.9 595.9,160.8 599.3,167 C602.7,173.2 607.3,178.1 613.2,181.6 C619.1,185.1 625.7,186.9 632.9,186.9 C640.1,186.9 646.7,185.1 652.6,181.6 C658.5,178.1 663.2,173.2 666.5,167 C669.9,160.8 671.5,153.8 671.5,146.2 C671.5,138.6 669.8,131.6 666.5,125.4 z M658.5,162.7 C656,167.6 652.4,171.4 647.9,174.2 C643.4,177 638.3,178.3 632.8,178.3 C627.3,178.3 622.3,176.9 617.8,174.1 C613.3,171.3 609.8,167.4 607.2,162.6 C604.6,157.7 603.3,152.2 603.3,146.2 C603.3,140.1 604.6,134.6 607.2,129.7 C609.8,124.8 613.3,121 617.8,118.2 C622.3,115.4 627.3,114 632.8,114 C638.3,114 643.3,115.4 647.9,118.2 C652.4,121 656,124.9 658.5,129.7 C661.1,134.6 662.3,140.1 662.3,146.2 C662.3,152.3 661.1,157.9 658.5,162.7 z" fill="#94979B"/>
        <path d="M740,153.4 C737.8,150.4 735,148.2 731.5,146.5 C728,144.9 723.6,143.4 718.4,142.1 C711.6,140.4 706.4,138.4 702.9,136.3 C699.4,134.2 697.5,131.1 697.3,127 C697.3,122.5 699,119.1 702.4,116.9 C705.8,114.7 709.9,113.5 714.7,113.5 C718.6,113.5 722.2,114.2 725.6,115.6 C729,117 731.9,119.1 734.3,121.9 C735.1,122.7 736,123.1 737.1,123.1 C738.2,123.1 739.1,122.8 739.9,122.2 C740.9,121.3 741.4,120.2 741.4,119 C741.4,117.7 741,116.7 740,115.9 C736.8,112.2 733,109.6 728.6,107.9 C724.2,106.2 719.7,105.4 715.4,105.4 C710.3,105.4 705.7,106.3 701.7,108.2 C697.7,110 694.5,112.6 692.1,115.9 C689.8,119.2 688.6,123 688.6,127.1 C688.6,133.7 691,138.8 695.8,142.2 C700.6,145.6 707.2,148.4 715.7,150.5 C721.7,152 726.4,153.9 729.8,156 C733.2,158.1 734.8,161.3 734.8,165.6 C734.8,170 733,173.3 729.4,175.6 C725.8,177.9 721.5,179 716.6,179 C706.6,179 698.6,175 692.6,167.1 C691.6,166.1 690.5,165.6 689.2,165.6 C688.2,165.6 687.4,165.9 686.8,166.5 C685.5,167.2 684.8,168.2 684.8,169.6 C684.8,170.5 685.2,171.6 686,173 C693.3,182.3 703.2,186.9 715.7,186.9 C723.5,186.9 730.1,184.9 735.4,181 C740.7,177.1 743.4,171.8 743.4,165.2 C743.3,160.3 742.2,156.4 740,153.4 z" fill="#94979B"/>
        <path d="M906.7,113.7 C902.3,108.1 895.3,105.4 885.8,105.4 C880.4,105.4 875.1,106.9 870,109.8 C864.9,112.7 860.9,116.3 858.1,120.7 L858.1,112.3 C858.1,111 857.7,109.9 856.8,109 C855.9,108.1 854.8,107.7 853.5,107.7 C852.2,107.7 851.1,108.1 850.2,109 C849.3,109.9 848.9,111 848.9,112.3 L848.9,180.8 C848.9,182.1 849.3,183.2 850.2,184.1 C851.1,185 852.2,185.4 853.5,185.4 C854.8,185.4 855.9,185 856.8,184.1 C857.7,183.2 858.1,182.1 858.1,180.8 L858.1,136.3 C858.1,132.3 859.3,128.6 861.8,125.2 C864.3,121.8 867.4,119.1 871.4,117 C875.3,115 879.5,113.9 883.9,113.9 C890.8,113.9 895.9,116 899.3,120.1 C902.6,124.2 904.3,129.6 904.3,136.2 L904.3,180.7 C904.3,182 904.7,183.1 905.6,184 C906.5,184.9 907.6,185.3 908.9,185.3 C910.1,185.3 911.2,184.9 912.1,184 C913,183.1 913.5,182 913.5,180.7 L913.5,135.7 C913.4,126.6 911.1,119.3 906.7,113.7 z" fill="#94979B"/>
        <path d="M763,225.3 C763,225.3 755.8,224.1 755.8,218.8 C755.8,213.5 762.2,215.6 762.2,215.6 C762.2,215.6 765.5,216.8 766.3,217.1 C767.7,217.5 769.2,217.7 770.6,217.7 C772.3,217.7 773.8,217.3 775.1,216.6 C776.4,215.9 777.5,214.9 778.5,213.8 C779.5,212.6 780.3,211.3 781,209.9 C781.7,208.5 782.3,207 782.8,205.5 L787.3,194 L789.1,189.4 L789.4,188.6 L789.3,188.4 L768,135.8 L759.9,115.2 L759.6,114.3 C758.5,111.6 759.9,108.6 762.6,107.5 C763.1,107.3 763.7,107.2 764.2,107.2 C766,107.2 767.7,108.3 768.4,110 L794.5,176.5 L815.7,121.1 L818,115.1 L818.1,115.1 L820.1,110 C820.8,108.2 822.5,107.2 824.3,107.2 C824.8,107.2 825.4,107.3 825.9,107.5 C828.6,108.5 829.9,111.6 828.9,114.3 L828.6,115.2 L820.5,135.8 L806.3,170.8 L799.3,188.7 L799.2,188.9 L795.6,198.1 L795.1,199.3 L790.5,210.9 C788.7,215.6 786.2,219.4 783.1,222.1 C779.9,224.8 775.7,226.2 770.4,226.2 C768.8,226.2 767.2,226.1 765.6,225.8 L763,225.3 z" fill="#94979B"/>
        <path d="M1025.8,168.2 C1034.2,158.6 1039.3,146 1039.3,132.2 C1039.3,101.8 1014.7,77.2 984.3,77.2 C953.9,77.2 929.3,101.8 929.3,132.2 C929.3,162.6 953.9,187.2 984.3,187.2 C997.6,187.2 1009.8,182.5 1019.3,174.7 L1030.1,185.5 C1031,186.4 1032.2,186.8 1033.3,186.8 C1034.4,186.8 1035.7,186.3 1036.5,185.5 C1038.3,183.7 1038.3,180.8 1036.5,179 L1025.8,168.2 z M1005,147.5 C1003.2,145.7 1000.3,145.7 998.5,147.5 C996.7,149.3 996.7,152.2 998.5,154 L1012.6,168.1 C1004.8,174.3 994.9,178 984.2,178 C959,178 938.4,157.5 938.4,132.2 C938.4,106.9 958.9,86.4 984.2,86.4 C1009.5,86.4 1030,106.9 1030,132.2 C1030,143.4 1025.9,153.7 1019.2,161.7 L1005,147.5 z" fill="#94979B"/>
      </g>
    </g>
  </g>
</svg>
